<svg xmlns="http://www.w3.org/2000/svg" xmlns:xlink="http://www.w3.org/1999/xlink" viewBox="0 0 815.8 837.21"><defs><style>.a{isolation:isolate;}.b{opacity:0.2;}.aw,.bi,.c{opacity:0;}.d{opacity:0.09;}.e{opacity:0.18;}.f{opacity:0.27;}.g{opacity:0.36;}.h{opacity:0.45;}.i{opacity:0.55;}.j{opacity:0.64;}.k{opacity:0.73;}.l{opacity:0.82;}.m{opacity:0.91;}.n{fill:url(#a);}.o{opacity:0.6;fill:url(#b);}.ag,.ah,.ai,.aj,.ak,.al,.am,.an,.ao,.ap,.aq,.ar,.o{mix-blend-mode:screen;}.p{fill:url(#c);}.q{fill:#1f3c79;}.r{fill:url(#d);}.s{fill:url(#e);}.t{fill:url(#f);}.u{fill:url(#g);}.aa,.ac,.ae,.af,.bz,.ca,.cb,.cc,.cd,.ce,.ch,.v{mix-blend-mode:color-dodge;}.v{fill:url(#h);}.w{fill:url(#i);}.x{fill:url(#j);}.y{fill:url(#k);}.z{fill:#67beae;}.aa{fill:url(#l);}.ab{fill:#fff;}.ac{fill:url(#m);}.ad{fill:url(#n);}.ae{fill:url(#o);}.af{fill:url(#p);}.ag{fill:url(#q);}.ah{fill:url(#r);}.ai{fill:url(#s);}.aj{fill:url(#t);}.ak{fill:url(#u);}.al{fill:url(#v);}.am{fill:url(#w);}.an{fill:url(#x);}.ao{fill:url(#y);}.ap{fill:url(#z);}.aq{fill:url(#aa);}.ar{fill:url(#ab);}.as{fill:url(#ac);}.at,.av,.bi,.bj,.bk,.bl,.bm,.bn,.bo,.bp,.bq,.br,.bs,.bt,.by{mix-blend-mode:multiply;}.at{fill:url(#ad);}.au{fill:url(#ae);}.av{fill:url(#af);}.aw{fill:url(#ag);}.ax{opacity:0.07;fill:url(#ah);}.ay{opacity:0.15;fill:url(#ai);}.az{opacity:0.22;fill:url(#aj);}.ba{opacity:0.29;fill:url(#ak);}.bb{opacity:0.36;fill:url(#al);}.bc{opacity:0.44;fill:url(#am);}.bd{opacity:0.51;fill:url(#an);}.be{opacity:0.58;fill:url(#ao);}.bf{opacity:0.65;fill:url(#ap);}.bg{opacity:0.73;fill:url(#aq);}.bh{opacity:0.8;fill:url(#ar);}.bi{fill:url(#as);}.bj{opacity:0.05;fill:url(#at);}.bk{opacity:0.09;fill:url(#au);}.bl{opacity:0.14;fill:url(#av);}.bm{opacity:0.18;fill:url(#aw);}.bn{opacity:0.23;fill:url(#ax);}.bo{opacity:0.27;fill:url(#ay);}.bp{opacity:0.32;fill:url(#az);}.bq{opacity:0.36;fill:url(#ba);}.br{opacity:0.41;fill:url(#bb);}.bs{opacity:0.45;fill:url(#bc);}.bt{opacity:0.5;fill:url(#bd);}.bu{fill:url(#be);}.bv{fill:#6fc6dc;}.bw{fill:url(#bf);}.bx{fill:url(#bg);}.by{fill:url(#bh);}.bz{fill:url(#bi);}.ca{fill:url(#bj);}.cb{fill:url(#bk);}.cc{fill:url(#bl);}.cd{fill:url(#bm);}.ce{fill:url(#bn);}.cf{fill:url(#bo);}.cg{fill:url(#bp);}.ch{fill:url(#bq);}</style><linearGradient id="a" x1="431.22" y1="526.31" x2="947.9" y2="526.31" gradientUnits="userSpaceOnUse"><stop offset="0" stop-color="#1f3c79"/><stop offset="0.14" stop-color="#22437f"/><stop offset="0.35" stop-color="#295691"/><stop offset="0.6" stop-color="#3575ad"/><stop offset="0.87" stop-color="#46a0d4"/><stop offset="1" stop-color="#4fb7e9"/></linearGradient><radialGradient id="b" cx="816.43" cy="282.25" r="328.7" gradientTransform="matrix(1.09, 0.02, -0.37, 0.91, 135.08, 33.59)" gradientUnits="userSpaceOnUse"><stop offset="0" stop-color="#9888bf"/><stop offset="1" stop-color="#211f46"/></radialGradient><linearGradient id="c" x1="403.71" y1="530.96" x2="920.4" y2="530.96" gradientUnits="userSpaceOnUse"><stop offset="0.06" stop-color="#035f83"/><stop offset="0.29" stop-color="#055f83"/><stop offset="0.4" stop-color="#0d5f84"/><stop offset="0.47" stop-color="#165f85"/><stop offset="0.48" stop-color="#196389"/><stop offset="0.49" stop-color="#206e97"/><stop offset="0.51" stop-color="#2c82ac"/><stop offset="0.52" stop-color="#3e9ccb"/><stop offset="0.53" stop-color="#4fb7e9"/><stop offset="0.54" stop-color="#42a3d2"/><stop offset="0.57" stop-color="#2f86b1"/><stop offset="0.59" stop-color="#217099"/><stop offset="0.61" stop-color="#19638a"/><stop offset="0.63" stop-color="#165f85"/><stop offset="0.81" stop-color="#165f85"/><stop offset="1" stop-color="#165f85"/></linearGradient><linearGradient id="d" x1="789.29" y1="501.63" x2="526.46" y2="127.06" gradientTransform="matrix(1.09, 0.02, -0.37, 0.91, 135.08, 33.59)" gradientUnits="userSpaceOnUse"><stop offset="0" stop-color="#fff"/><stop offset="1" stop-color="#4fb7e9"/></linearGradient><linearGradient id="e" x1="842.69" y1="712.68" x2="601.54" y2="369" xlink:href="#d"/><linearGradient id="f" x1="796.69" y1="887.69" x2="526.38" y2="502.44" xlink:href="#d"/><linearGradient id="g" x1="76.03" y1="10651.1" x2="127.87" y2="10651.1" gradientTransform="matrix(-1.08, 1.3, -1.13, 0.43, 13025.48, -4308.37)" gradientUnits="userSpaceOnUse"><stop offset="0" stop-color="#31265f"/><stop offset="0.21" stop-color="#291f4f"/><stop offset="0.49" stop-color="#20183e"/><stop offset="1" stop-color="#110c1c"/></linearGradient><radialGradient id="h" cx="830.32" cy="421.46" r="21" gradientTransform="matrix(1.09, 0.02, -0.37, 0.91, 135.08, 33.59)" gradientUnits="userSpaceOnUse"><stop offset="0" stop-color="#721e56"/><stop offset="0.16" stop-color="#6d1d52"/><stop offset="0.36" stop-color="#5d1946"/><stop offset="0.58" stop-color="#441233"/><stop offset="0.82" stop-color="#210919"/><stop offset="1"/></radialGradient><linearGradient id="i" x1="423.26" y1="530.96" x2="900.86" y2="530.96" gradientTransform="matrix(1, 0, 0, 1, 0, 0)" xlink:href="#d"/><linearGradient id="j" x1="725.93" y1="967.29" x2="591.71" y2="761.3" gradientUnits="userSpaceOnUse"><stop offset="0.04" stop-color="#118abc"/><stop offset="0.25" stop-color="#2094c1"/><stop offset="0.66" stop-color="#49adcf"/><stop offset="1" stop-color="#6fc6dc"/></linearGradient><linearGradient id="k" x1="207.91" y1="393.47" x2="474.14" y2="719.73" gradientUnits="userSpaceOnUse"><stop offset="0" stop-color="#1f3c79"/><stop offset="1" stop-color="#4fb7e9"/></linearGradient><radialGradient id="l" cx="537.24" cy="553.92" r="158.81" gradientUnits="userSpaceOnUse"><stop offset="0" stop-color="#fff"/><stop offset="1"/></radialGradient><radialGradient id="m" cx="-2651.3" cy="-1107.7" r="37.38" gradientTransform="matrix(0.35, -0.14, 0.25, 0.61, 1696.84, 896.01)" gradientUnits="userSpaceOnUse"><stop offset="0" stop-color="#a9378b"/><stop offset="0.09" stop-color="#8a2d72"/><stop offset="0.24" stop-color="#601f4f"/><stop offset="0.38" stop-color="#3e1433"/><stop offset="0.53" stop-color="#230b1c"/><stop offset="0.68" stop-color="#0f050d"/><stop offset="0.84" stop-color="#040103"/><stop offset="1"/></radialGradient><linearGradient id="n" x1="457.96" y1="105.8" x2="722.77" y2="430.32" xlink:href="#k"/><radialGradient id="o" cx="785.14" cy="265.41" r="158.22" xlink:href="#l"/><radialGradient id="p" cx="-1751.74" cy="-1368.42" r="37.38" xlink:href="#m"/><linearGradient id="q" x1="643.99" y1="746.12" x2="643.99" y2="851.17" gradientUnits="userSpaceOnUse"><stop offset="0" stop-color="#113a39"/><stop offset="0.22" stop-color="#0a2222"/><stop offset="0.47" stop-color="#040f0f"/><stop offset="0.73" stop-color="#010404"/><stop offset="1"/></linearGradient><linearGradient id="r" x1="643.99" y1="746.25" x2="643.99" y2="849.63" gradientUnits="userSpaceOnUse"><stop offset="0" stop-color="#194646"/><stop offset="0.03" stop-color="#174141"/><stop offset="0.28" stop-color="#0d2525"/><stop offset="0.52" stop-color="#061010"/><stop offset="0.76" stop-color="#010404"/><stop offset="1"/></linearGradient><linearGradient id="s" x1="643.99" y1="746.39" x2="643.99" y2="848.1" gradientUnits="userSpaceOnUse"><stop offset="0" stop-color="#225353"/><stop offset="0.09" stop-color="#1d4646"/><stop offset="0.33" stop-color="#102828"/><stop offset="0.57" stop-color="#071212"/><stop offset="0.79" stop-color="#020404"/><stop offset="1"/></linearGradient><linearGradient id="t" x1="643.99" y1="746.52" x2="643.99" y2="846.56" gradientUnits="userSpaceOnUse"><stop offset="0" stop-color="#2a5f61"/><stop offset="0.13" stop-color="#214a4c"/><stop offset="0.37" stop-color="#132a2b"/><stop offset="0.6" stop-color="#081313"/><stop offset="0.82" stop-color="#020505"/><stop offset="1"/></linearGradient><linearGradient id="u" x1="643.99" y1="746.65" x2="643.99" y2="845.03" gradientUnits="userSpaceOnUse"><stop offset="0" stop-color="#326c6e"/><stop offset="0.16" stop-color="#255152"/><stop offset="0.4" stop-color="#152e2f"/><stop offset="0.63" stop-color="#0a1515"/><stop offset="0.84" stop-color="#020505"/><stop offset="1"/></linearGradient><linearGradient id="v" x1="643.99" y1="746.78" x2="643.99" y2="843.49" gradientUnits="userSpaceOnUse"><stop offset="0" stop-color="#3a787b"/><stop offset="0.18" stop-color="#2b585a"/><stop offset="0.43" stop-color="#183233"/><stop offset="0.65" stop-color="#0b1717"/><stop offset="0.85" stop-color="#030606"/><stop offset="1"/></linearGradient><linearGradient id="w" x1="643.99" y1="746.92" x2="643.99" y2="841.96" gradientUnits="userSpaceOnUse"><stop offset="0" stop-color="#438588"/><stop offset="0.19" stop-color="#316264"/><stop offset="0.44" stop-color="#1c3839"/><stop offset="0.67" stop-color="#0d191a"/><stop offset="0.86" stop-color="#030707"/><stop offset="1"/></linearGradient><linearGradient id="x" x1="643.99" y1="747.05" x2="643.99" y2="840.42" gradientUnits="userSpaceOnUse"><stop offset="0" stop-color="#4b9195"/><stop offset="0.18" stop-color="#386d70"/><stop offset="0.45" stop-color="#203e40"/><stop offset="0.68" stop-color="#0f1c1d"/><stop offset="0.87" stop-color="#040808"/><stop offset="1"/></linearGradient><linearGradient id="y" x1="643.99" y1="747.18" x2="643.99" y2="838.89" gradientUnits="userSpaceOnUse"><stop offset="0" stop-color="#539ea2"/><stop offset="0.16" stop-color="#427d80"/><stop offset="0.44" stop-color="#264749"/><stop offset="0.69" stop-color="#112121"/><stop offset="0.88" stop-color="#050909"/><stop offset="1"/></linearGradient><linearGradient id="z" x1="643.99" y1="747.31" x2="643.99" y2="837.35" gradientUnits="userSpaceOnUse"><stop offset="0" stop-color="#5baab0"/><stop offset="0.12" stop-color="#4d9095"/><stop offset="0.43" stop-color="#2c5356"/><stop offset="0.69" stop-color="#142627"/><stop offset="0.89" stop-color="#060a0b"/><stop offset="1"/></linearGradient><linearGradient id="aa" x1="643.99" y1="747.44" x2="643.99" y2="835.82" gradientUnits="userSpaceOnUse"><stop offset="0" stop-color="#64b7bd"/><stop offset="0.04" stop-color="#5faeb3"/><stop offset="0.39" stop-color="#376467"/><stop offset="0.67" stop-color="#192e2f"/><stop offset="0.89" stop-color="#070d0d"/><stop offset="1"/></linearGradient><linearGradient id="ab" x1="643.99" y1="747.58" x2="643.99" y2="834.28" gradientUnits="userSpaceOnUse"><stop offset="0" stop-color="#6cc3ca"/><stop offset="0.32" stop-color="#457d81"/><stop offset="0.64" stop-color="#203a3c"/><stop offset="0.88" stop-color="#091011"/><stop offset="1"/></linearGradient><linearGradient id="ac" x1="619.89" y1="728.19" x2="668.37" y2="728.19" xlink:href="#k"/><radialGradient id="ad" cx="556.59" cy="578.4" r="40.93" gradientUnits="userSpaceOnUse"><stop offset="0.38" stop-color="#fff"/><stop offset="0.45" stop-color="#f2f9fd"/><stop offset="0.57" stop-color="#d0ebf8"/><stop offset="0.74" stop-color="#98d3ef"/><stop offset="0.94" stop-color="#4db2e4"/><stop offset="1" stop-color="#35a8e0"/></radialGradient><linearGradient id="ae" x1="532.22" y1="615.71" x2="755.43" y2="581.92" gradientUnits="userSpaceOnUse"><stop offset="0.01" stop-color="#35a8e0"/><stop offset="0.03" stop-color="#3face2"/><stop offset="0.06" stop-color="#5ab8e6"/><stop offset="0.1" stop-color="#87cbed"/><stop offset="0.15" stop-color="#c3e5f6"/><stop offset="0.2" stop-color="#fff"/><stop offset="0.21" stop-color="#f5fbfe"/><stop offset="0.24" stop-color="#dbf0fa"/><stop offset="0.28" stop-color="#b1ddf3"/><stop offset="0.32" stop-color="#76c4ea"/><stop offset="0.36" stop-color="#35a8e0"/><stop offset="0.61" stop-color="#35a8e0"/><stop offset="1" stop-color="#35a8e0"/></linearGradient><radialGradient id="af" cx="633.61" cy="593.46" fx="509.2726319555576" fy="525.2335273881571" r="141.83" xlink:href="#ad"/><linearGradient id="ag" x1="428.24" y1="362.23" x2="596.06" y2="459.12" gradientUnits="userSpaceOnUse"><stop offset="0" stop-color="#fff"/><stop offset="0.02" stop-color="#e5e8ef"/><stop offset="0.07" stop-color="#bcc4d7"/><stop offset="0.12" stop-color="#96a4c0"/><stop offset="0.17" stop-color="#7687ad"/><stop offset="0.23" stop-color="#5a709d"/><stop offset="0.3" stop-color="#445d8f"/><stop offset="0.38" stop-color="#334e85"/><stop offset="0.48" stop-color="#28447e"/><stop offset="0.62" stop-color="#213e7a"/><stop offset="1" stop-color="#1f3c79"/></linearGradient><linearGradient id="ah" x1="429.21" y1="362.4" x2="595.01" y2="458.12" xlink:href="#ag"/><linearGradient id="ai" x1="430.18" y1="362.56" x2="593.96" y2="457.12" xlink:href="#ag"/><linearGradient id="aj" x1="431.15" y1="362.72" x2="592.91" y2="456.12" xlink:href="#ag"/><linearGradient id="ak" x1="432.12" y1="362.89" x2="591.86" y2="455.11" xlink:href="#ag"/><linearGradient id="al" x1="433.09" y1="363.05" x2="590.81" y2="454.11" xlink:href="#ag"/><linearGradient id="am" x1="434.06" y1="363.22" x2="589.76" y2="453.11" xlink:href="#ag"/><linearGradient id="an" x1="435.03" y1="363.38" x2="588.71" y2="452.11" xlink:href="#ag"/><linearGradient id="ao" x1="436" y1="363.55" x2="587.66" y2="451.11" xlink:href="#ag"/><linearGradient id="ap" x1="436.97" y1="363.71" x2="586.61" y2="450.11" xlink:href="#ag"/><linearGradient id="aq" x1="437.94" y1="363.88" x2="585.56" y2="449.1" xlink:href="#ag"/><linearGradient id="ar" x1="438.91" y1="364.04" x2="584.51" y2="448.1" xlink:href="#ag"/><linearGradient id="as" x1="451.39" y1="352.23" x2="596.93" y2="436.26" gradientUnits="userSpaceOnUse"><stop offset="0.19" stop-color="#3a235a"/><stop offset="0.93" stop-color="#3a235a"/></linearGradient><linearGradient id="at" x1="453.05" y1="353.47" x2="594.85" y2="435.34" xlink:href="#as"/><linearGradient id="au" x1="454.72" y1="354.71" x2="592.77" y2="434.41" xlink:href="#as"/><linearGradient id="av" x1="456.39" y1="355.95" x2="590.69" y2="433.49" xlink:href="#as"/><linearGradient id="aw" x1="458.05" y1="357.18" x2="588.62" y2="432.57" xlink:href="#as"/><linearGradient id="ax" x1="459.72" y1="358.42" x2="586.54" y2="431.64" xlink:href="#as"/><linearGradient id="ay" x1="461.39" y1="359.66" x2="584.46" y2="430.72" xlink:href="#as"/><linearGradient id="az" x1="463.05" y1="360.9" x2="582.38" y2="429.79" xlink:href="#as"/><linearGradient id="ba" x1="464.72" y1="362.14" x2="580.3" y2="428.87" xlink:href="#as"/><linearGradient id="bb" x1="466.39" y1="363.38" x2="578.23" y2="427.95" xlink:href="#as"/><linearGradient id="bc" x1="468.05" y1="364.61" x2="576.15" y2="427.02" xlink:href="#as"/><linearGradient id="bd" x1="469.72" y1="365.85" x2="574.07" y2="426.1" xlink:href="#as"/><radialGradient id="be" cx="611.71" cy="394.87" r="179.23" gradientTransform="translate(493.28 -329.66) rotate(45)" gradientUnits="userSpaceOnUse"><stop offset="0.01" stop-color="#fff"/><stop offset="0.02" stop-color="#fbfcfe"/><stop offset="0.13" stop-color="#c2d1eb"/><stop offset="0.23" stop-color="#98b1de"/><stop offset="0.31" stop-color="#7e9ed6"/><stop offset="0.36" stop-color="#7597d3"/><stop offset="0.47" stop-color="#659bd6"/><stop offset="0.68" stop-color="#3ca6df"/><stop offset="0.72" stop-color="#35a8e0"/><stop offset="0.77" stop-color="#33a4dd"/><stop offset="0.82" stop-color="#2f99d5"/><stop offset="0.87" stop-color="#2786c7"/><stop offset="0.91" stop-color="#1d70b7"/><stop offset="0.94" stop-color="#1d6eb4"/><stop offset="0.96" stop-color="#1d66ab"/><stop offset="0.98" stop-color="#1e5a9d"/><stop offset="0.99" stop-color="#1f4887"/><stop offset="1" stop-color="#1f3c79"/></radialGradient><radialGradient id="bf" cx="577.62" cy="473.47" r="43.34" gradientUnits="userSpaceOnUse"><stop offset="0.04" stop-color="#35a8e0"/><stop offset="0.52" stop-color="#1d70b7"/><stop offset="1" stop-color="#211f47"/><stop offset="1" stop-color="#211f46"/></radialGradient><linearGradient id="bg" x1="686.6" y1="636.71" x2="773.14" y2="647.35" gradientUnits="userSpaceOnUse"><stop offset="0.01" stop-color="#009ee2"/><stop offset="0.03" stop-color="#0aa2e3"/><stop offset="0.06" stop-color="#25ace6"/><stop offset="0.1" stop-color="#52bdeb"/><stop offset="0.15" stop-color="#8fd5f2"/><stop offset="0.2" stop-color="#ddf2fb"/><stop offset="0.22" stop-color="#fff"/><stop offset="0.23" stop-color="#f5fbfe"/><stop offset="0.25" stop-color="#dbf1fb"/><stop offset="0.28" stop-color="#b1e1f6"/><stop offset="0.31" stop-color="#76cbef"/><stop offset="0.34" stop-color="#2cafe7"/><stop offset="0.36" stop-color="#009ee2"/><stop offset="0.61" stop-color="#009ee2"/><stop offset="0.74" stop-color="#0793d8"/><stop offset="0.96" stop-color="#1976bd"/><stop offset="1" stop-color="#1d70b7"/></linearGradient><radialGradient id="bh" cx="695.57" cy="625.97" r="61.1" gradientUnits="userSpaceOnUse"><stop offset="0.38" stop-color="#fff"/><stop offset="0.43" stop-color="#f2fafe"/><stop offset="0.54" stop-color="#d0edfa"/><stop offset="0.68" stop-color="#98d8f3"/><stop offset="0.84" stop-color="#4dbbeb"/><stop offset="1" stop-color="#009ee2"/></radialGradient><radialGradient id="bi" cx="-6609.62" cy="-1624.32" r="39.74" gradientTransform="matrix(0.32, -0.19, 0, 0.98, 2821.79, 932.19)" gradientUnits="userSpaceOnUse"><stop offset="0" stop-color="#29235c"/><stop offset="0.18" stop-color="#1b173d"/><stop offset="0.38" stop-color="#0f0d22"/><stop offset="0.58" stop-color="#07060f"/><stop offset="0.78" stop-color="#020104"/><stop offset="1"/></radialGradient><radialGradient id="bj" cx="-8470.96" cy="-1541.93" r="41.5" gradientTransform="matrix(0.34, -0.15, -0.12, 0.97, 3446.66, 816.3)" gradientUnits="userSpaceOnUse"><stop offset="0" stop-color="#1f3c79"/><stop offset="0" stop-color="#1f3b77"/><stop offset="0.07" stop-color="#162b58"/><stop offset="0.14" stop-color="#0f1e3c"/><stop offset="0.22" stop-color="#0a1326"/><stop offset="0.31" stop-color="#050a15"/><stop offset="0.43" stop-color="#020409"/><stop offset="0.59" stop-color="#000102"/><stop offset="1"/></radialGradient><radialGradient id="bk" cx="606.24" cy="378.2" r="92.99" gradientTransform="translate(907.77 -279.54) rotate(80.7)" gradientUnits="userSpaceOnUse"><stop offset="0" stop-color="#1f3c79"/><stop offset="0.11" stop-color="#193060"/><stop offset="0.28" stop-color="#101e3d"/><stop offset="0.45" stop-color="#091122"/><stop offset="0.63" stop-color="#04080f"/><stop offset="0.81" stop-color="#010204"/><stop offset="1"/></radialGradient><radialGradient id="bl" cx="550.92" cy="420.09" r="35.55" gradientTransform="translate(832.38 -212.98) rotate(76.64)" gradientUnits="userSpaceOnUse"><stop offset="0" stop-color="#6cc3ca"/><stop offset="0.06" stop-color="#61afb5"/><stop offset="0.24" stop-color="#447a7f"/><stop offset="0.42" stop-color="#2b4e51"/><stop offset="0.59" stop-color="#192c2e"/><stop offset="0.74" stop-color="#0b1415"/><stop offset="0.89" stop-color="#030505"/><stop offset="1"/></radialGradient><radialGradient id="bm" cx="474.26" cy="331.39" r="35.55" gradientTransform="matrix(1, 0, 0, 1, 0, 0)" xlink:href="#bl"/><radialGradient id="bn" cx="-4970.59" cy="-79.62" r="113.22" gradientTransform="matrix(0.22, -0.06, 0.24, 0.97, 1685.32, 409)" gradientUnits="userSpaceOnUse"><stop offset="0" stop-color="#1d70b7"/><stop offset="0.08" stop-color="#16568c"/><stop offset="0.17" stop-color="#103f67"/><stop offset="0.26" stop-color="#0b2c47"/><stop offset="0.36" stop-color="#071c2d"/><stop offset="0.47" stop-color="#040f19"/><stop offset="0.59" stop-color="#02070b"/><stop offset="0.74" stop-color="#000202"/><stop offset="1"/></radialGradient><linearGradient id="bo" x1="168.99" y1="151.73" x2="512.92" y2="539.63" xlink:href="#k"/><linearGradient id="bp" x1="-361.33" y1="623.55" x2="956.37" y2="328.16" gradientTransform="matrix(0.87, 0.5, 0, 1.15, 67.09, -344.73)" xlink:href="#j"/><radialGradient id="bq" cx="520.55" cy="301.56" r="189.13" xlink:href="#l"/></defs><title>ai</title><g class="a"><g class="b"><path class="c" d="M679.29,958.61c-8.89,0-17-2-23.33-5.63L514.28,872.36,372.6,791.73c-8.5-4.91-13.38-12.68-13.38-21.32,0-9.47,5.88-18.29,16.12-24.21L468.06,694a57.36,57.36,0,0,1,28.33-7.21c8.89,0,17,1.95,23.33,5.63l141.67,80.62,141.68,80.63c8.51,4.91,13.38,12.68,13.38,21.32,0,9.47-5.87,18.29-16.11,24.21l-92.72,52.17A57.51,57.51,0,0,1,679.29,958.61Z" transform="translate(-132.1 -121.39)"/><path class="d" d="M377.85,748.2l25.22-14.07c1-.59,48.12-26.28,49-25.77l16.22-8c7.32-4.22,18.06-5.62,27.36-5.62a47.9,47.9,0,0,1,22.52,5.87l113.43,64.61,24.2,13.79,137.63,78.39a29.38,29.38,0,0,1,10.69,10.41,21.86,21.86,0,0,1,2.81,9.92c.28,9.1-5.32,17.73-15.39,23.55l-25.22,14.06c-1,.6-48.12,26.29-49,25.78l-16.22,7.94c-7.32,4.22-18.06,5.63-27.36,5.63a48,48,0,0,1-22.52-5.87L537.79,884.25l-24.2-13.78L376,792.07a29.3,29.3,0,0,1-10.69-10.41,21.82,21.82,0,0,1-2.81-9.92C362.18,762.64,367.78,754,377.85,748.2Z" transform="translate(-132.1 -121.39)"/><path class="e" d="M380.36,750.19l24.54-13.56c2.05-1.18,46.14-24.37,47.91-23.35l15.74-6.49c6.58-3.8,18-4,26.38-4,7.27,0,16.5,3.11,21.71,6.12l110.1,62.78L650.23,785l133.59,76.16c4,2.31,8.55,6.45,10.54,9.91a21.48,21.48,0,0,1,3.07,9.43c.53,8.74-4.76,17.17-14.66,22.88L758.23,917c-2.05,1.19-46.14,24.38-47.91,23.36l-15.74,6.49c-6.58,3.8-18,4-26.38,4-7.28,0-16.5-3.11-21.71-6.12L536.39,882,512.9,868.58,379.31,792.41c-4-2.31-8.56-6.44-10.55-9.9a21.55,21.55,0,0,1-3.06-9.44C365.16,764.34,370.46,755.91,380.36,750.19Z" transform="translate(-132.1 -121.39)"/><path class="f" d="M382.87,752.19l23.85-13.05c3.08-1.78,44.16-22.47,46.82-20.93l15.26-5.05c5.85-3.37,18-2.46,25.4-2.46,6.47,0,16.27,3.68,20.91,6.36L621.87,778l22.78,13,129.54,73.94c3.55,2,8.57,6.36,10.4,9.4a21.2,21.2,0,0,1,3.33,8.94c.8,8.37-4.2,16.6-13.94,22.22l-23.85,13c-3.07,1.78-44.15,22.47-46.82,20.93l-15.25,5c-5.85,3.37-18,2.46-25.41,2.46-6.46,0-16.27-3.68-20.9-6.36L535,879.69l-22.77-13L382.66,792.75c-3.55-2-8.56-6.36-10.4-9.4a21.32,21.32,0,0,1-3.32-8.94C368.13,766,373.14,757.81,382.87,752.19Z" transform="translate(-132.1 -121.39)"/><path class="g" d="M385.38,754.18l23.17-12.54c4.09-2.36,42.17-20.56,45.72-18.51l14.78-3.59c5.12-3,17.92-.89,24.42-.89,5.66,0,16,4.27,20.1,6.61L617,784.36,639.07,797l125.49,71.71c3.11,1.8,8.6,6.27,10.27,8.89A21.16,21.16,0,0,1,778.4,886c1.08,8-3.64,16-13.2,21.56L742,920.13c-4.09,2.37-42.17,20.56-45.72,18.51l-14.77,3.59c-5.12,3-17.92.89-24.43.89-5.66,0-16-4.26-20.1-6.61l-103.43-59.1L511.52,864.8,386,793.09c-3.11-1.79-8.59-6.27-10.26-8.89a21.13,21.13,0,0,1-3.58-8.46C371.1,767.74,375.82,759.7,385.38,754.18Z" transform="translate(-132.1 -121.39)"/><path class="h" d="M387.89,756.18l22.48-12c5.12-3,40.2-18.66,44.63-16.1l14.29-2.14c4.39-2.53,17.88.69,23.46.69,4.84,0,15.8,4.85,19.28,6.86l100.1,57.27,21.35,12.21,121.46,69.48c2.66,1.54,8.63,6.18,10.12,8.39,1.77,2.63,3.32,5.12,3.83,8,1.36,7.64-3.08,15.48-12.47,20.9l-22.48,12c-5.12,3-40.2,18.65-44.63,16.09L675,939.94c-4.38,2.53-17.87-.69-23.45-.69-4.85,0-15.81-4.85-19.28-6.85L532.17,875.13l-21.34-12.21L389.37,793.43c-2.66-1.54-8.63-6.18-10.12-8.38-1.77-2.63-3.32-5.12-3.83-8C374.06,769.43,378.5,761.6,387.89,756.18Z" transform="translate(-132.1 -121.39)"/><path class="i" d="M390.4,758.17l21.8-11.52c6.14-3.55,38.21-16.75,43.53-13.67l13.81-.69c3.66-2.11,17.83,2.27,22.48,2.27,4,0,15.58,5.43,18.47,7.1l96.77,55.43,20.64,11.82,117.41,67.26c2.22,1.28,8.69,6.07,10,7.88,1.8,2.52,3.48,4.79,4.09,7.48,1.63,7.28-2.53,14.91-11.75,20.24l-21.79,11.52C719.69,926.84,687.62,940,682.3,937l-13.81.69c-3.65,2.11-17.82-2.27-22.47-2.27-4,0-15.58-5.43-18.48-7.1l-96.77-55.43L510.13,861,392.72,793.77c-2.22-1.28-8.69-6.07-10-7.88-1.8-2.52-3.49-4.79-4.09-7.48C377,771.13,381.18,763.5,390.4,758.17Z" transform="translate(-132.1 -121.39)"/><path class="j" d="M392.91,760.17l21.11-11c7.17-4.14,36.24-14.84,42.44-11.25l13.33.77c2.92-1.69,17.78,3.84,21.5,3.84,3.23,0,15.35,6,17.67,7.35l93.43,53.59,19.93,11.43,113.36,65c1.78,1,8.77,6,9.84,7.37,1.83,2.43,3.64,4.48,4.34,7,1.92,6.91-2,14.35-11,19.57l-21.11,11c-7.17,4.14-36.23,14.84-42.44,11.25L662,935.36c-2.92,1.69-17.78-3.85-21.5-3.85-3.23,0-15.35-6-17.66-7.35l-93.44-53.59-19.93-11.43-113.36-65c-1.78-1-8.77-6-9.84-7.37-1.83-2.43-3.64-4.48-4.34-7C380,772.83,383.86,765.39,392.91,760.17Z" transform="translate(-132.1 -121.39)"/><path class="k" d="M395.42,762.16l20.43-10.5c8.19-4.73,34.25-12.94,41.34-8.84L470,745c2.19-1.26,17.73,5.43,20.52,5.43,2.43,0,15.12,6.59,16.86,7.59l90.11,51.76,19.21,11,109.32,62.8c1.33.77,9.08,5.69,9.69,6.87a14.78,14.78,0,0,1,4.6,6.51c2.21,6.54-1.41,13.79-10.28,18.91l-20.43,10.51c-8.19,4.73-34.25,12.93-41.34,8.83l-12.85-2.22c-2.19,1.27-17.73-5.42-20.52-5.42-2.43,0-15.12-6.59-16.86-7.59L528,868.29l-19.21-11-109.32-62.8c-1.33-.77-9.08-5.68-9.69-6.87a14.65,14.65,0,0,1-4.6-6.51C382.93,774.53,386.55,767.29,395.42,762.16Z" transform="translate(-132.1 -121.39)"/><path class="l" d="M397.94,764.16l19.73-10c9.22-5.32,32.27-11,40.26-6.42l12.35,3.68c1.47-.85,17.69,7,19.55,7,1.62,0,14.89,7.17,16.05,7.84l86.78,49.92,18.5,10.65,105.27,60.56c.89.52,9.14,5.58,9.55,6.37a14.33,14.33,0,0,1,4.86,6C733.34,906,730,913,721.28,918l-19.74,10c-9.21,5.32-32.27,11-40.25,6.41l-12.36-3.67c-1.46.85-17.69-7-19.55-7-1.61,0-14.89-7.17-16-7.84L526.56,866l-18.5-10.65L402.78,794.79c-.88-.51-9.14-5.57-9.55-6.36a14.33,14.33,0,0,1-4.85-6C385.88,776.23,389.23,769.19,397.94,764.16Z" transform="translate(-132.1 -121.39)"/><path class="m" d="M400.45,766.15l19.05-9.49c10.24-5.91,30.29-9.11,39.16-4l11.87,5.12c.73-.42,17.64,8.58,18.57,8.58s14.67,7.75,15.24,8.09l83.45,48.09,17.78,10.25,101.24,58.34c.44.25,9.2,5.46,9.4,5.85a14.2,14.2,0,0,1,5.12,5.55c2.79,5.79-.3,12.65-8.83,17.58l-19.06,9.49c-10.24,5.91-30.28,9.11-39.15,4l-11.88-5.12c-.73.42-17.64-8.58-18.57-8.58s-14.66-7.75-15.24-8.09l-83.44-48.09-17.79-10.25L406.14,795.13c-.45-.25-9.21-5.46-9.41-5.85a14.14,14.14,0,0,1-5.11-5.54C388.82,777.94,391.91,771.08,400.45,766.15Z" transform="translate(-132.1 -121.39)"/><path d="M647.28,932.76,523.75,861.44,400.22,790.12c-9.75-5.63-8.53-15.47,2.74-22l18.36-9c11.27-6.51,28.31-7.21,38.07-1.58l123.53,71.32,123.53,71.32c9.75,5.63,8.53,15.47-2.74,22l-18.36,9C674.08,937.69,657,938.4,647.28,932.76Z" transform="translate(-132.1 -121.39)"/></g><path class="n" d="M655.44,916,455.25,791.39c-22.59-14-30.69-50.64-18.1-81.73L660,159.16c6.4-15.81-7.81-19.63,4-25.11.45-.21,25.61-8,26.08-8.12,11.5-3,23-4.25,33.65,2.38L923.87,252.87c22.58,14.06,30.69,50.65,18.1,81.74L719.12,885.11c-6.69,16.52-17.87,28.16-30.27,33.33-.74.31-31.24,10.16-32,10.33C646.78,931.09,665.32,922.1,655.44,916Z" transform="translate(-132.1 -121.39)"/><path class="o" d="M633.17,922.89,433,798.33c-22.58-14.05-30.69-50.64-18.1-81.73L637.72,166.1c12.59-31.09,41.1-44.9,63.68-30.85L901.6,259.81c22.58,14.05,30.68,50.65,18.1,81.73L696.84,892C684.26,923.13,655.75,936.94,633.17,922.89Z" transform="translate(-132.1 -121.39)"/><path class="p" d="M627.94,924.79,427.74,800.22c-22.58-14.05-30.68-50.64-18.1-81.73L632.5,168c12.58-31.09,41.09-44.9,63.67-30.85l200.2,124.57c22.58,14.05,30.69,50.64,18.1,81.73L691.62,893.94C679,925,650.52,938.84,627.94,924.79Z" transform="translate(-132.1 -121.39)"/><path class="q" d="M415.08,722.3,638.21,171.12c11-27.25,36-39.36,55.82-27L893.16,268c19.8,12.32,26.9,44.4,15.87,71.65L685.91,890.81c-11,27.25-36,39.36-55.83,27L431,794C411.15,781.63,404.05,749.55,415.08,722.3Z" transform="translate(-132.1 -121.39)"/><path class="q" d="M423.61,725.86l222-548.39c9.24-22.81,30.15-32.94,46.72-22.63L887.22,276.1c16.57,10.31,22.52,37.16,13.28,60l-222,548.38c-9.23,22.82-30.15,32.95-46.72,22.64L436.89,785.83C420.32,775.52,414.38,748.67,423.61,725.86Z" transform="translate(-132.1 -121.39)"/><path class="q" d="M859.92,265c-4.64,11.46-16.25,15.88-25.93,9.86L724.93,207c-9.67-6-13.76-20.2-9.11-31.66L692.68,161c-15.62-9.72-34.35-2.59-41.84,15.91L426.35,731.42c-7.49,18.5-.91,41.38,14.71,51.1L631.43,901c15.62,9.72,34.35,2.59,41.84-15.91l224.5-554.55c7.49-18.5.9-41.38-14.72-51.1Z" transform="translate(-132.1 -121.39)"/><path class="r" d="M642.46,199.78l-35.27,86.71L794.28,401.93a24.83,24.83,0,0,0,36.12-11.72l16.29-40a24.83,24.83,0,0,0-9.87-30.42Z" transform="translate(-132.1 -121.39)"/><path class="s" d="M612.24,438.74,600.76,467a31.11,31.11,0,0,0,12.42,38.16l171,106.08L819.4,524.5,657.47,424A31.12,31.12,0,0,0,612.24,438.74Z" transform="translate(-132.1 -121.39)"/><path class="t" d="M502.38,542.45l-35.27,86.71L661.24,749a25.73,25.73,0,0,0,37.44-12.15l15.6-38.33A25.73,25.73,0,0,0,704.05,667Z" transform="translate(-132.1 -121.39)"/><path class="u" d="M869.58,471l15-37.16c1.93-4.75,7.63-10.2,12.75-12.17h0c5.12-2,7.71.29,5.78,5.05l-15,37.16c-1.92,4.75-7.63,10.2-12.75,12.17h0C870.24,478,867.65,475.71,869.58,471Z" transform="translate(-132.1 -121.39)"/><path class="q" d="M872.53,475.31c-2.21-.05-2.07-2.36-1.27-4.32l15-37.16c1.71-4.23,6.94-9.26,11.42-11a7.14,7.14,0,0,1,2.48-.54c2.21.05,2.07,2.36,1.28,4.32l-15.05,37.16c-1.71,4.23-6.94,9.26-11.42,11A7.09,7.09,0,0,1,872.53,475.31Z" transform="translate(-132.1 -121.39)"/><path class="v" d="M873.16,472l15.05-37.16c1.71-4.23,6.94-9.26,11.42-11a7.27,7.27,0,0,1,2.21-.51,1.62,1.62,0,0,0-1.64-1,7.14,7.14,0,0,0-2.48.54c-4.48,1.72-9.71,6.75-11.42,11l-15,37.16c-.8,2-.94,4.27,1.27,4.32l.27,0A4.9,4.9,0,0,1,873.16,472Z" transform="translate(-132.1 -121.39)"/><path class="w" d="M883.05,279.41,859.92,265c-4.64,11.46-16.25,15.88-25.93,9.86L724.93,207c-9.67-6-13.76-20.2-9.11-31.66L692.68,161c-15.62-9.72-34.35-2.59-41.84,15.91L426.35,731.42c-7.49,18.5-.9,41.38,14.71,51.1L631.43,901c15.62,9.72,34.35,2.59,41.85-15.91L897.77,330.51C905.26,312,898.67,289.13,883.05,279.41ZM670.22,885A30.51,30.51,0,0,1,660,898.55a22.13,22.13,0,0,1-13.4,4.22h0a25.23,25.23,0,0,1-12.74-4L443.48,780.35c-14.92-9.28-21.23-31.2-14.08-48.87L653.89,176.93c4.53-11.17,13.58-18,23.63-17.77a25.2,25.2,0,0,1,12.74,4l22,13.65c-4.14,12.14.21,26.12,10.31,32.41L831.57,277a19.81,19.81,0,0,0,10.15,3.07c7.68.16,14.8-4,19.12-10.85l19.8,12.32c14.91,9.28,21.23,31.2,14.07,48.87Z" transform="translate(-132.1 -121.39)"/><path class="x" d="M653.75,829l1.1-2.73-2.61-1.63,3-7.52a3.45,3.45,0,0,0,3.45-2.35,5,5,0,0,0-1.72-6c-1.82-1.14-4-.3-4.89,1.86a5.22,5.22,0,0,0,.54,4.83l-3,7.53L647,821.37l-1.11,2.73c-9.65-3.32-20,1.79-24.46,12.83-5.11,12.63-.61,28.26,10,34.89S655,873.59,660.07,861C664.54,849.91,661.67,836.59,653.75,829Zm.7,31.94c-1,2.33-3.17,3.46-5.28,2.68a69.13,69.13,0,0,1-22.71-14.08,6.77,6.77,0,0,1-1.52-7.3l2.11-5.2a2.92,2.92,0,0,1,4.84-1.26,69.27,69.27,0,0,0,22.7,14.12c2,.73,2.95,3.4,2.08,5.57Zm-6-9.33a2.34,2.34,0,0,0-3.46,1.32,3.55,3.55,0,0,0,1.22,4.24,2.34,2.34,0,0,0,3.46-1.32A3.56,3.56,0,0,0,648.44,851.59Zm-14-8.7a2.35,2.35,0,0,0-3.47,1.32,3.54,3.54,0,0,0,1.22,4.23,2.33,2.33,0,0,0,3.46-1.31A3.55,3.55,0,0,0,634.46,842.89Z" transform="translate(-132.1 -121.39)"/><path class="y" d="M482.52,707.23,205,547.37c-15.13-8.74-27.4-32.18-27.4-52.37V433.41c0-10.24-10-10.44-4.92-14.14.42-.3,14-7.81,14.45-8.06,4.8-2.73,11-2.46,17.87,1.48l277.5,159.87c15.14,8.74,27.41,32.18,27.41,52.36v61.59c0,11-3.67,18.81-9.47,22.16-.19.11-14,8-14.2,8.07C481.54,719.18,489.11,711,482.52,707.23Z" transform="translate(-132.1 -121.39)"/><path class="z" d="M468.81,715,191.31,555.16c-15.13-8.74-27.4-32.19-27.4-52.37V441.2c0-20.18,12.27-29.46,27.4-20.72l277.5,159.87c15.14,8.73,27.41,32.18,27.41,52.36V694.3C496.22,714.48,484,723.76,468.81,715Z" transform="translate(-132.1 -121.39)"/><path class="aa" d="M473.12,577.55,195.62,417.69c-7.69-4.45-14.64-4.21-19.61-.28,3.94-.65,8.48.28,13.32,3.07l277.5,159.87c15.14,8.73,27.41,32.18,27.41,52.36V694.3c0,9.92-3,17.19-7.79,21,8.39-1.39,14.08-10.06,14.08-23.79V629.91C500.53,609.73,488.26,586.29,473.12,577.55Z" transform="translate(-132.1 -121.39)"/><polygon class="ab" points="152.41 386.22 152.41 392.84 329.12 493.96 329.12 487.33 152.41 386.22"/><polygon class="ab" points="223.07 481.41 152.41 441.3 152.41 447.93 223.07 488.04 223.07 481.41"/><polygon class="ab" points="262.04 476.37 152.41 413.76 152.41 420.39 262.04 483 262.04 476.37"/><polygon class="ab" points="197.03 452.61 152.41 427.53 152.41 434.16 197.03 459.23 197.03 452.61"/><polygon class="ab" points="203.55 456.37 203.55 463 293.8 514.88 293.8 508.26 203.55 456.37"/><polygon class="ab" points="229.59 485.18 229.59 491.81 280.22 521.03 280.22 514.41 229.59 485.18"/><polygon class="ab" points="268.57 486.76 329.12 521.5 329.12 514.88 268.57 480.14 268.57 486.76"/><polygon class="ab" points="300.32 518.65 329.12 535.27 329.12 528.65 300.32 512.02 300.32 518.65"/><polygon class="ab" points="152.41 406.62 329.12 507.73 329.12 501.1 152.41 399.99 152.41 406.62"/><polygon class="ab" points="286.74 524.8 329.12 549.05 329.12 542.42 286.74 518.17 286.74 524.8"/><polygon class="ab" points="152.41 461.7 329.12 562.82 329.12 556.19 152.41 455.08 152.41 461.7"/><path class="ab" d="M253,538.49a55,55,0,0,1-11.32-13.55c-1.87-3.14-1.8-6.53,0-7.59a14.45,14.45,0,0,0,5.77-6.45c2,.55,4.44-.18,4.44-2.9a10.75,10.75,0,0,0-2.86-7.32c-.48-11.87-4.54-24.08-18.2-32s-17.71-.37-18.2,10.95c-1.63-.37-2.86,1.24-2.86,4s2.46,6.29,4.44,8A64.57,64.57,0,0,0,220,504.83c1.82,3.16,1.89,6.63,0,7.6-3.08,1.61-7,1.79-11.31.49-5.73-1.74-10,1.72-10,8.78V534a8.23,8.23,0,0,0,3.75,6.45l56.79,32.79c2.06,1.19,3.74.24,3.74-2.13V558.81C263,551.75,258.76,543.37,253,538.49Z" transform="translate(-132.1 -121.39)"/><path class="ac" d="M505.11,590.72c5.21,12.67,3.6,25.35-3.61,28.31s-17.27-4.91-22.48-17.59-3.59-25.36,3.61-28.32S499.9,578,505.11,590.72Z" transform="translate(-132.1 -121.39)"/><path class="ad" d="M730.69,418.15,455.52,259.36c-15.14-8.74-27.41-32.19-27.41-52.37V145.4c0-10.24-10-10.44-4.91-14.14.42-.3,14-7.81,14.45-8.06,4.8-2.74,11-2.46,17.87,1.48l275.17,158.8c15.13,8.74,27.4,32.18,27.4,52.36v61.59c0,11-3.66,18.82-9.47,22.17l-14.19,8.06C729.7,430.1,737.28,422,730.69,418.15Z" transform="translate(-132.1 -121.39)"/><path class="z" d="M717,425.94,441.81,267.14c-15.14-8.73-27.41-32.18-27.41-52.36V153.19c0-20.18,12.27-29.46,27.41-20.72L717,291.27c15.13,8.74,27.4,32.18,27.4,52.36v61.59C744.38,425.4,732.11,434.68,717,425.94Z" transform="translate(-132.1 -121.39)"/><path class="ae" d="M721.29,288.47,446.12,129.67c-7.7-4.44-14.64-4.21-19.62-.27,3.95-.66,8.49.28,13.33,3.07L715,291.27c15.13,8.74,27.4,32.18,27.4,52.36v61.59c0,9.92-3,17.19-7.79,21,8.4-1.4,14.08-10.06,14.08-23.79V340.84C748.69,320.65,736.42,297.21,721.29,288.47Z" transform="translate(-132.1 -121.39)"/><polygon class="ab" points="402.91 98.2 402.91 104.83 577.28 204.88 577.28 198.25 402.91 98.2"/><polygon class="ab" points="473.56 193.4 402.91 153.29 402.91 159.92 473.56 200.03 473.56 193.4"/><polygon class="ab" points="512.54 188.36 402.91 125.75 402.91 132.37 512.54 194.98 512.54 188.36"/><polygon class="ab" points="447.52 164.59 402.91 139.52 402.91 146.15 447.52 171.22 447.52 164.59"/><polygon class="ab" points="454.05 168.36 454.05 174.99 541.97 225.81 541.97 219.18 454.05 168.36"/><polygon class="ab" points="480.09 197.16 480.09 203.79 530.71 233.02 530.71 226.39 480.09 197.16"/><polygon class="ab" points="519.06 198.75 577.28 232.43 577.28 225.8 519.06 192.12 519.06 198.75"/><polygon class="ab" points="548.49 229.57 577.28 246.2 577.28 239.57 548.49 222.94 548.49 229.57"/><polygon class="ab" points="402.91 118.6 577.28 218.65 577.28 212.03 402.91 111.97 402.91 118.6"/><polygon class="ab" points="537.24 236.79 577.28 259.97 577.28 253.34 537.24 230.16 537.24 236.79"/><polygon class="ab" points="402.91 173.69 577.28 273.74 577.28 267.11 402.91 167.06 402.91 173.69"/><path class="ab" d="M503.52,250.47a54.84,54.84,0,0,1-11.31-13.55c-1.87-3.13-1.81-6.53,0-7.59a14.44,14.44,0,0,0,5.78-6.44c2,.55,4.44-.18,4.44-2.9a10.71,10.71,0,0,0-2.86-7.32c-.49-11.88-4.54-24.08-18.2-32s-17.71-.37-18.2,10.94c-1.64-.36-2.86,1.24-2.86,4s2.46,6.29,4.44,8a64,64,0,0,0,5.78,13.11c1.82,3.17,1.88,6.64,0,7.61-3.09,1.61-7,1.79-11.31.48-5.74-1.73-10,1.73-10,8.79v12.24a8.24,8.24,0,0,0,3.75,6.46l56.78,32.79c2.07,1.19,3.75.24,3.75-2.14V270.8C513.52,263.74,509.26,255.36,503.52,250.47Z" transform="translate(-132.1 -121.39)"/><path class="af" d="M753.28,301.64c5.21,12.68,3.59,25.35-3.61,28.31S732.4,325,727.19,312.36s-3.6-25.35,3.61-28.31S748.07,289,753.28,301.64Z" transform="translate(-132.1 -121.39)"/><path class="ag" d="M674.29,761.61c0,32.25-13.57,116.68-30.3,116.68S613.7,793.86,613.7,761.61c0-28.4,13.56-35.24,30.29-35.24S674.29,733.21,674.29,761.61Z" transform="translate(-132.1 -121.39)"/><path class="ah" d="M672.67,761.22c0,31.48-12.84,115.11-28.68,115.11s-28.67-83.63-28.67-115.11c0-27.72,12.83-34.4,28.67-34.4S672.67,733.5,672.67,761.22Z" transform="translate(-132.1 -121.39)"/><path class="ai" d="M671.05,760.82c0,30.72-12.11,113.54-27.06,113.54s-27.06-82.82-27.06-113.54c0-27,12.12-33.56,27.06-33.56S671.05,733.78,671.05,760.82Z" transform="translate(-132.1 -121.39)"/><path class="aj" d="M669.43,760.43c0,30-11.39,112-25.44,112s-25.44-82-25.44-112c0-26.37,11.39-32.72,25.44-32.72S669.43,734.06,669.43,760.43Z" transform="translate(-132.1 -121.39)"/><path class="ak" d="M667.82,760c0,29.19-10.67,110.39-23.83,110.39S620.17,789.23,620.17,760c0-25.69,10.66-31.88,23.82-31.88S667.82,734.35,667.82,760Z" transform="translate(-132.1 -121.39)"/><path class="al" d="M666.2,759.65c0,28.42-9.94,108.81-22.21,108.81s-22.21-80.39-22.21-108.81c0-25,10-31,22.21-31S666.2,734.63,666.2,759.65Z" transform="translate(-132.1 -121.39)"/><path class="am" d="M664.58,759.26c0,27.65-9.22,107.24-20.59,107.24S623.4,786.91,623.4,759.26c0-24.35,9.22-30.21,20.59-30.21S664.58,734.91,664.58,759.26Z" transform="translate(-132.1 -121.39)"/><path class="an" d="M663,758.86c0,26.89-8.49,105.67-19,105.67s-19-78.78-19-105.67c0-23.67,8.49-29.37,19-29.37S663,735.19,663,758.86Z" transform="translate(-132.1 -121.39)"/><path class="ao" d="M661.35,758.47c0,26.12-7.77,104.1-17.36,104.1s-17.35-78-17.35-104.1c0-23,7.77-28.53,17.35-28.53S661.35,735.48,661.35,758.47Z" transform="translate(-132.1 -121.39)"/><path class="ap" d="M659.73,758.08c0,25.35-7.05,102.52-15.74,102.52s-15.74-77.17-15.74-102.52c0-22.32,7-27.7,15.74-27.7S659.73,735.76,659.73,758.08Z" transform="translate(-132.1 -121.39)"/><path class="aq" d="M658.11,757.69c0,24.59-6.32,100.95-14.12,100.95s-14.12-76.36-14.12-100.95c0-21.65,6.32-26.86,14.12-26.86S658.11,736,658.11,757.69Z" transform="translate(-132.1 -121.39)"/><path class="ar" d="M656.5,757.3c0,23.82-5.6,99.37-12.51,99.37s-12.5-75.55-12.5-99.37c0-21,5.6-26,12.5-26S656.5,736.33,656.5,757.3Z" transform="translate(-132.1 -121.39)"/><path class="as" d="M668.37,717.62H619.89v6.84h0c0,.06,0,.13,0,.19,0,7.8,10.86,14.12,24.24,14.12s24.24-6.32,24.24-14.12v-.19h0Z" transform="translate(-132.1 -121.39)"/><path class="at" d="M581.25,557.32c-3.81,17.17-23.49,75.94-36.71,73s-15.85-66.3-11.16-83.64c4-14.94,15.93-22.64,29.15-19.7S584.61,542.21,581.25,557.32Z" transform="translate(-132.1 -121.39)"/><ellipse class="q" cx="512.04" cy="596.32" rx="24.24" ry="14.12"/><path class="au" d="M752,540.61c0,59.67-48.37,184.61-108,184.61S536,600.28,536,540.61c0-52.52,48.37-65.18,108-65.18S752,488.09,752,540.61Z" transform="translate(-132.1 -121.39)"/><path class="av" d="M752,541.81c0,59.67-48.37,184.61-108,184.61S536,601.48,536,541.81c0-52.52,48.37-65.18,108-65.18S752,489.29,752,541.81Z" transform="translate(-132.1 -121.39)"/><ellipse class="aw" cx="512.15" cy="410.68" rx="106.02" ry="61.74"/><ellipse class="ax" cx="512.11" cy="410.26" rx="104.74" ry="60.99"/><ellipse class="ay" cx="512.07" cy="409.84" rx="103.46" ry="60.25"/><ellipse class="az" cx="512.03" cy="409.42" rx="102.19" ry="59.51"/><ellipse class="ba" cx="511.99" cy="409" rx="100.91" ry="58.76"/><ellipse class="bb" cx="511.95" cy="408.58" rx="99.64" ry="58.02"/><ellipse class="bc" cx="511.91" cy="408.16" rx="98.36" ry="57.28"/><ellipse class="bd" cx="511.87" cy="407.75" rx="97.08" ry="56.53"/><ellipse class="be" cx="511.83" cy="407.33" rx="95.81" ry="55.79"/><ellipse class="bf" cx="511.79" cy="406.91" rx="94.53" ry="55.05"/><ellipse class="bg" cx="511.75" cy="406.49" rx="93.25" ry="54.3"/><ellipse class="bh" cx="511.71" cy="406.07" rx="91.98" ry="53.56"/><ellipse class="bi" cx="524.16" cy="394.25" rx="91.95" ry="53.54"/><ellipse class="bj" cx="523.95" cy="394.4" rx="89.58" ry="52.16"/><ellipse class="bk" cx="523.75" cy="394.56" rx="87.21" ry="50.79"/><ellipse class="bl" cx="523.54" cy="394.72" rx="84.85" ry="49.41"/><ellipse class="bm" cx="523.33" cy="394.87" rx="82.48" ry="48.03"/><ellipse class="bn" cx="523.13" cy="395.03" rx="80.12" ry="46.65"/><ellipse class="bo" cx="522.92" cy="395.19" rx="77.75" ry="45.28"/><ellipse class="bp" cx="522.72" cy="395.35" rx="75.38" ry="43.9"/><ellipse class="bq" cx="522.51" cy="395.5" rx="73.02" ry="42.52"/><ellipse class="br" cx="522.31" cy="395.66" rx="70.65" ry="41.14"/><ellipse class="bs" cx="522.1" cy="395.82" rx="68.29" ry="39.77"/><ellipse class="bt" cx="521.89" cy="395.98" rx="65.92" ry="38.39"/><circle class="bu" cx="644.57" cy="430.61" r="126.84" transform="translate(-247.8 460.51) rotate(-45)"/><path class="q" d="M528,441.82h0a172.11,172.11,0,0,0,105.08,60.3h0a18.23,18.23,0,0,0,21.15-18V451.05A33.53,33.53,0,0,0,630.41,419h0a186.28,186.28,0,0,1-78.65-47.58h0a11,11,0,0,0-17.47,2.44,124,124,0,0,0-13.57,43.75A32.31,32.31,0,0,0,528,441.82Z" transform="translate(-132.1 -121.39)"/><ellipse class="bv" cx="551.37" cy="420.94" rx="7.7" ry="13.34" transform="translate(-269.17 214.42) rotate(-30.31)"/><path class="bv" d="M615.29,457.88c0,6-4.23,8.41-9.46,5.4S596.37,453,596.37,447s4.24-8.41,9.46-5.39S615.29,451.88,615.29,457.88Z" transform="translate(-132.1 -121.39)"/><circle class="bw" cx="587.27" cy="487.48" r="29.52"/><path class="bx" d="M745.75,622c-3.75,22.2-34.92,71-48.14,68s-1.43-63,2.39-80.18c3.36-15.11,15.93-22.64,29.15-19.7S748.33,606.69,745.75,622Z" transform="translate(-132.1 -121.39)"/><path class="by" d="M745.75,622c-3.75,22.2-34.92,71-48.14,68s-1.43-63,2.39-80.18c3.36-15.11,15.93-22.64,29.15-19.7S748.33,606.69,745.75,622Z" transform="translate(-132.1 -121.39)"/><path class="bz" d="M723.84,616.48c-1.29,17.54-21.71,66.91-25.94,66.59s2.78-44.85,5.19-63.7c2-15.36,6.66-23.15,10.69-24.48C725.28,591.12,725,601,723.84,616.48Z" transform="translate(-132.1 -121.39)"/><path class="ca" d="M743,624.27c-5.41,26-32.16,60.48-36.32,59.67s19.6-35.61,24.21-54.05c3.76-15,.17-30.3,4.33-31.13C747.1,596.36,746.17,609.11,743,624.27Z" transform="translate(-132.1 -121.39)"/><circle class="cb" cx="618.41" cy="394.5" r="80.35" transform="translate(-2.96 819.63) rotate(-80.7)"/><circle class="cc" cx="550.92" cy="420.09" r="35.55" transform="translate(-117.17 737.67) rotate(-76.64)"/><circle class="cd" cx="474.26" cy="331.39" r="35.55"/><path class="ce" d="M587.79,586.41C602.2,644.31,632.06,711,625,714.21c-12.49,5.66-61.63-59.81-76-117.71-12.68-51-6.68-110.91,6.51-114.19S575.1,535.44,587.79,586.41Z" transform="translate(-132.1 -121.39)"/><path class="q" d="M556.55,504l-9.11-15.72c-1.81-3.12.09-5.46,2.49-3.1l12.47,12.28c3.4,3.34,7.1,5.48,10.5,6.06l12.46,2.12c2.41.41,4.3,4.94,2.5,6l-9.12,5.2C572.62,520.29,562.68,514.56,556.55,504Z" transform="translate(-132.1 -121.39)"/><path class="cf" d="M521.62,534.06,475.17,428.77V370.51c0-17.37-12.27-38.53-27.4-47.27L172.63,164.07c-7.57-4.37-14.42-4.81-19.38-2-.44.25-13.7,7.69-14.12,8-4.2,3.1,6.09,1.7,6.09,9.61v71.78c0,17.37,12.27,38.53,27.41,47.27L439.24,453l69.26,88.6Z" transform="translate(-132.1 -121.39)"/><path class="cg" d="M508.5,541.59,462.05,436.31V378.05c0-17.37-12.27-38.53-27.41-47.27L159.5,171.61c-15.13-8.74-27.4-1.75-27.4,15.62V259c0,17.37,12.27,38.53,27.4,47.27L426.12,460.53Z" transform="translate(-132.1 -121.39)"/><path class="ch" d="M158.11,173.47,433.25,332.64c15.13,8.74,27.4,29.91,27.4,47.27v58.26L500.27,528l12.42,12.23L466.24,434.91V376.65c0-17.37-12.27-38.53-27.4-47.27L163.7,170.21c-9.06-5.23-17.07-4.79-22.06.11C146.23,169,151.92,169.9,158.11,173.47Z" transform="translate(-132.1 -121.39)"/><path class="ab" d="M195.43,234.84v-4.47L191,227.82V215.51c2,.16,3.37-1.3,3.37-3.94A12.3,12.3,0,0,0,188.8,202c-3.08-1.78-5.58-.36-5.58,3.18a12.36,12.36,0,0,0,3.37,7.83v12.31l-4.41-2.55v4.47c-14.85-5.06-26,3.58-26,21.65,0,20.68,14.61,45.88,32.63,56.29s32.63,2.07,32.63-18.61C221.43,268.45,210.27,246.92,195.43,234.84Zm12.74,56.35c-12.68-4.63-25.68-12.11-38.36-22.09-3.49-2.75-6-7.71-6-11.78V248.8c0-3.55,2.8-4.61,5.85-2.21,12.67,10,25.67,17.49,38.35,22.14,3,1.11,5.85,5.41,5.85,9v9C213.83,290.47,211.45,292.38,208.17,291.19ZM177,258.08c-2.18-1.27-4-.26-4,2.25a8.74,8.74,0,0,0,4,6.83c2.19,1.26,4,.25,4-2.25A8.71,8.71,0,0,0,177,258.08Zm23.64,13.64c-2.19-1.26-4-.25-4,2.26a8.71,8.71,0,0,0,4,6.83c2.19,1.26,4,.25,4-2.26A8.73,8.73,0,0,0,200.62,271.72Z" transform="translate(-132.1 -121.39)"/><polygon class="ab" points="110.99 129.39 110.99 136.02 292.76 240.09 292.76 233.46 110.99 129.39"/><polygon class="ab" points="187.01 227.49 110.99 184.48 110.99 191.11 187.01 234.12 187.01 227.49"/><polygon class="ab" points="225.98 222.44 110.99 156.94 110.99 163.56 225.98 229.07 225.98 222.44"/><polygon class="ab" points="160.97 198.68 110.99 170.71 110.99 177.34 160.97 205.31 160.97 198.68"/><polygon class="ab" points="167.49 202.45 167.49 209.07 257.44 261.01 257.44 254.38 167.49 202.45"/><polygon class="ab" points="193.53 231.25 193.53 237.88 244.15 267.11 244.15 260.48 193.53 231.25"/><polygon class="ab" points="232.5 232.84 292.76 267.63 292.76 261 232.5 226.21 232.5 232.84"/><polygon class="ab" points="263.96 264.78 292.76 281.4 292.76 274.77 263.96 258.15 263.96 264.78"/><polygon class="ab" points="110.99 149.79 292.76 253.86 292.76 247.23 110.99 143.16 110.99 149.79"/><polygon class="ab" points="250.68 270.88 292.76 295.17 292.76 288.55 250.68 264.25 250.68 270.88"/><polygon class="ab" points="110.99 204.88 292.76 308.94 292.76 302.32 110.99 198.25 110.99 204.88"/></g></svg>