<svg xmlns="http://www.w3.org/2000/svg" xmlns:xlink="http://www.w3.org/1999/xlink" viewBox="0 0 999.65 682.89"><defs><style>.a{isolation:isolate;}.b,.dh,.di,.dj,.dk{fill:#67beae;}.c{fill:url(#a);}.d{fill:url(#b);}.e{fill:url(#c);}.f{fill:url(#d);}.g{fill:url(#e);}.h{fill:url(#f);}.i{fill:url(#g);}.j{fill:url(#h);}.k{fill:url(#i);}.l{fill:url(#j);}.m{fill:url(#k);}.n{fill:url(#l);}.o{fill:url(#m);}.p{fill:url(#n);}.q{fill:url(#o);}.r{fill:url(#p);}.s{fill:url(#q);}.t{fill:url(#r);}.u{fill:url(#s);}.v{fill:url(#t);}.w{fill:url(#u);}.x{fill:url(#v);}.y{fill:url(#w);}.z{fill:url(#x);}.aa{fill:url(#y);}.ab{fill:url(#z);}.ac{fill:url(#aa);}.ad{fill:url(#ab);}.ae{fill:url(#ac);}.af,.dh{opacity:0.2;}.ag{opacity:0;}.ah{opacity:0.09;}.ai{opacity:0.18;}.aj{opacity:0.27;}.ak{opacity:0.36;}.al{opacity:0.45;}.am{opacity:0.55;}.an{opacity:0.64;}.ao{opacity:0.73;}.ap{opacity:0.82;}.aq{opacity:0.91;}.ar{fill:url(#ad);}.as{fill:url(#ae);}.at{fill:url(#af);}.au{fill:url(#ag);}.av{fill:url(#ah);}.aw{fill:url(#ai);}.ax{fill:url(#aj);}.ay{fill:url(#ak);}.az{fill:url(#al);}.ba{fill:url(#am);}.bb{fill:url(#an);}.bc{fill:url(#ao);}.bd{fill:url(#ap);}.be{fill:url(#aq);}.bf{fill:url(#ar);}.bg{fill:url(#as);}.bh{fill:url(#at);}.bi{fill:url(#au);}.bj{fill:url(#av);}.bk{fill:url(#aw);}.bl{fill:url(#ax);}.bm,.ch,.cy{fill:#1f3c79;}.bn{fill:url(#ay);}.bo{fill:url(#az);}.bp,.bx,.ch,.cw{mix-blend-mode:multiply;}.bp{fill:url(#ba);}.bq{fill:url(#bb);}.br{fill:url(#bc);}.bs{fill:url(#bd);}.bt{fill:url(#be);}.bu{fill:url(#bf);}.bv{fill:url(#bg);}.bw,.cx,.cz{fill:#fff;}.by{fill:#e4d2e8;}.bz{fill:url(#bh);}.ca{fill:url(#bi);}.cb{fill:url(#bj);}.cc{fill:url(#bk);}.cd{opacity:0.1;}.ce{fill:url(#bl);}.cf{fill:url(#bm);}.cg{fill:#221e20;mix-blend-mode:color-dodge;}.ci{opacity:0.02;}.cj{opacity:0.05;}.ck{opacity:0.07;}.cl{opacity:0.1;}.cm{opacity:0.12;}.cn{opacity:0.15;}.co{opacity:0.17;}.cp{opacity:0.2;}.cq{opacity:0.22;}.cr{opacity:0.25;}.cs{opacity:0.27;}.ct{opacity:0.3;}.cu{fill:url(#bn);}.cv{fill:url(#bo);}.cw{fill:#cdb2d6;}.cx{opacity:0.5;}.cy,.cz,.dk{opacity:0.8;}.da{fill:url(#bp);}.db{fill:url(#bq);}.dc{fill:url(#br);}.dd{fill:url(#bs);}.de{fill:url(#bt);}.df{fill:url(#bu);}.dg{fill:url(#bv);}.di{opacity:0.4;}.dj{opacity:0.6;}</style><linearGradient id="a" x1="998.54" y1="473.82" x2="328.83" y2="604.33" gradientUnits="userSpaceOnUse"><stop offset="0" stop-color="#fff"/><stop offset="1" stop-color="#4fb7e9"/></linearGradient><linearGradient id="b" x1="986.03" y1="428.23" x2="344.21" y2="650.15" xlink:href="#a"/><linearGradient id="c" x1="961.56" y1="387.86" x2="371.53" y2="690.06" xlink:href="#a"/><linearGradient id="d" x1="926.09" y1="354.5" x2="407.73" y2="719.71" xlink:href="#a"/><linearGradient id="e" x1="883.77" y1="333.16" x2="451.38" y2="739.37" xlink:href="#a"/><linearGradient id="f" x1="837.61" y1="324.58" x2="498.85" y2="746.8" xlink:href="#a"/><linearGradient id="g" x1="791.27" y1="329.24" x2="546.54" y2="741.5" xlink:href="#a"/><linearGradient id="h" x1="757.19" y1="325.47" x2="581.23" y2="747.18" xlink:href="#a"/><linearGradient id="i" x1="725.33" y1="324.98" x2="615.55" y2="746.38" xlink:href="#a"/><linearGradient id="j" x1="694.93" y1="332.13" x2="648.36" y2="737.37" xlink:href="#a"/><linearGradient id="k" x1="667.35" y1="345.94" x2="677.11" y2="721.22" xlink:href="#a"/><linearGradient id="l" x1="644.78" y1="365.11" x2="700.96" y2="699.5" xlink:href="#a"/><linearGradient id="m" x1="628.15" y1="388.09" x2="718.68" y2="673.77" xlink:href="#a"/><linearGradient id="n" x1="617.94" y1="413.41" x2="729.38" y2="645.7" xlink:href="#a"/><linearGradient id="o" x1="598.3" y1="415.25" x2="748.92" y2="641.32" xlink:href="#a"/><linearGradient id="p" x1="556.64" y1="396.35" x2="790.27" y2="658.37" xlink:href="#a"/><linearGradient id="q" x1="511.17" y1="389.6" x2="835.33" y2="663.84" xlink:href="#a"/><linearGradient id="r" x1="465.39" y1="395.6" x2="880.7" y2="656.98" xlink:href="#a"/><linearGradient id="s" x1="422.94" y1="413.58" x2="923.09" y2="637.71" xlink:href="#a"/><linearGradient id="t" x1="386.82" y1="442.27" x2="959.05" y2="607.36" xlink:href="#a"/><linearGradient id="u" x1="359.59" y1="479.73" x2="985.66" y2="568.24" xlink:href="#a"/><linearGradient id="v" x1="343.51" y1="523.25" x2="1000.88" y2="523.25" xlink:href="#a"/><linearGradient id="w" x1="343.67" y1="527.3" x2="1001.05" y2="527.3" gradientUnits="userSpaceOnUse"><stop offset="0" stop-color="#055a7d"/><stop offset="1" stop-color="#4fb7e9"/></linearGradient><linearGradient id="x" x1="348.91" y1="526.68" x2="994.52" y2="526.68" xlink:href="#w"/><linearGradient id="y" x1="354.15" y1="526.06" x2="987.99" y2="526.06" xlink:href="#w"/><linearGradient id="z" x1="751.94" y1="72.13" x2="828.01" y2="72.13" xlink:href="#w"/><linearGradient id="aa" x1="770.04" y1="326.84" x2="875.29" y2="326.84" xlink:href="#w"/><linearGradient id="ab" x1="654.88" y1="288.95" x2="800.17" y2="288.95" xlink:href="#w"/><linearGradient id="ac" x1="442.15" y1="347.14" x2="955.09" y2="347.14" xlink:href="#w"/><linearGradient id="ad" x1="342.86" y1="532" x2="1000.24" y2="532" xlink:href="#w"/><linearGradient id="ae" x1="342.87" y1="531.51" x2="1000.21" y2="531.51" gradientUnits="userSpaceOnUse"><stop offset="0" stop-color="#06597d"/><stop offset="1" stop-color="#4db1e4"/></linearGradient><linearGradient id="af" x1="342.87" y1="531.02" x2="1000.2" y2="531.02" gradientUnits="userSpaceOnUse"><stop offset="0" stop-color="#07577d"/><stop offset="1" stop-color="#4aabde"/></linearGradient><linearGradient id="ag" x1="342.87" y1="530.53" x2="1000.2" y2="530.53" gradientUnits="userSpaceOnUse"><stop offset="0" stop-color="#09567c"/><stop offset="1" stop-color="#48a5d9"/></linearGradient><linearGradient id="ah" x1="342.87" y1="530.05" x2="1000.2" y2="530.05" gradientUnits="userSpaceOnUse"><stop offset="0" stop-color="#0a547c"/><stop offset="1" stop-color="#46a0d4"/></linearGradient><linearGradient id="ai" x1="342.87" y1="529.56" x2="1000.2" y2="529.56" gradientUnits="userSpaceOnUse"><stop offset="0" stop-color="#0b537c"/><stop offset="1" stop-color="#449ace"/></linearGradient><linearGradient id="aj" x1="342.87" y1="529.07" x2="1000.2" y2="529.07" gradientUnits="userSpaceOnUse"><stop offset="0" stop-color="#0c517c"/><stop offset="1" stop-color="#4194c9"/></linearGradient><linearGradient id="ak" x1="342.87" y1="528.58" x2="1000.2" y2="528.58" gradientUnits="userSpaceOnUse"><stop offset="0" stop-color="#0e507c"/><stop offset="1" stop-color="#3f8ec4"/></linearGradient><linearGradient id="al" x1="342.87" y1="528.09" x2="1000.21" y2="528.09" gradientUnits="userSpaceOnUse"><stop offset="0" stop-color="#0f4f7b"/><stop offset="1" stop-color="#3d88be"/></linearGradient><linearGradient id="am" x1="342.87" y1="527.6" x2="1000.21" y2="527.6" gradientUnits="userSpaceOnUse"><stop offset="0" stop-color="#104d7b"/><stop offset="1" stop-color="#3a82b9"/></linearGradient><linearGradient id="an" x1="342.87" y1="527.12" x2="1000.21" y2="527.12" gradientUnits="userSpaceOnUse"><stop offset="0" stop-color="#114c7b"/><stop offset="1" stop-color="#387cb4"/></linearGradient><linearGradient id="ao" x1="342.87" y1="526.63" x2="1000.21" y2="526.63" gradientUnits="userSpaceOnUse"><stop offset="0" stop-color="#134a7b"/><stop offset="1" stop-color="#3677ae"/></linearGradient><linearGradient id="ap" x1="342.87" y1="526.14" x2="1000.22" y2="526.14" gradientUnits="userSpaceOnUse"><stop offset="0" stop-color="#14497b"/><stop offset="1" stop-color="#3471a9"/></linearGradient><linearGradient id="aq" x1="342.87" y1="525.65" x2="1000.22" y2="525.65" gradientUnits="userSpaceOnUse"><stop offset="0" stop-color="#15477b"/><stop offset="1" stop-color="#316ba4"/></linearGradient><linearGradient id="ar" x1="342.87" y1="525.16" x2="1000.22" y2="525.16" gradientUnits="userSpaceOnUse"><stop offset="0" stop-color="#16467a"/><stop offset="1" stop-color="#2f659e"/></linearGradient><linearGradient id="as" x1="342.87" y1="524.67" x2="1000.22" y2="524.67" gradientUnits="userSpaceOnUse"><stop offset="0" stop-color="#18457a"/><stop offset="1" stop-color="#2d5f99"/></linearGradient><linearGradient id="at" x1="342.87" y1="524.19" x2="1000.22" y2="524.19" gradientUnits="userSpaceOnUse"><stop offset="0" stop-color="#19437a"/><stop offset="1" stop-color="#2a5994"/></linearGradient><linearGradient id="au" x1="342.87" y1="523.7" x2="1000.23" y2="523.7" gradientUnits="userSpaceOnUse"><stop offset="0" stop-color="#1a427a"/><stop offset="1" stop-color="#28538e"/></linearGradient><linearGradient id="av" x1="342.87" y1="523.21" x2="1000.23" y2="523.21" gradientUnits="userSpaceOnUse"><stop offset="0" stop-color="#1b407a"/><stop offset="1" stop-color="#264e89"/></linearGradient><linearGradient id="aw" x1="342.87" y1="522.72" x2="1000.23" y2="522.72" gradientUnits="userSpaceOnUse"><stop offset="0" stop-color="#1d3f79"/><stop offset="1" stop-color="#244884"/></linearGradient><linearGradient id="ax" x1="342.87" y1="522.23" x2="1000.24" y2="522.23" gradientUnits="userSpaceOnUse"><stop offset="0" stop-color="#1e3d79"/><stop offset="1" stop-color="#21427e"/></linearGradient><linearGradient id="ay" x1="907.74" y1="527.33" x2="924.53" y2="527.33" xlink:href="#a"/><linearGradient id="az" x1="899.7" y1="549.62" x2="892.63" y2="532.2" xlink:href="#a"/><linearGradient id="ba" x1="780.72" y1="347.3" x2="467.2" y2="838.87" gradientUnits="userSpaceOnUse"><stop offset="0" stop-color="#fff"/><stop offset="1" stop-color="#e4d2e8"/></linearGradient><linearGradient id="bb" x1="862.1" y1="392.68" x2="909.6" y2="392.68" xlink:href="#a"/><linearGradient id="bc" x1="498.38" y1="532.04" x2="776.12" y2="532.04" xlink:href="#a"/><linearGradient id="bd" x1="719.15" y1="312.87" x2="870.55" y2="312.87" xlink:href="#a"/><linearGradient id="be" x1="564.16" y1="302.81" x2="748.86" y2="302.81" xlink:href="#a"/><linearGradient id="bf" x1="685.06" y1="233" x2="869.76" y2="233" xlink:href="#a"/><linearGradient id="bg" x1="563.37" y1="222.93" x2="714.77" y2="222.93" xlink:href="#a"/><linearGradient id="bh" x1="452.62" y1="450.75" x2="540.77" y2="450.75" xlink:href="#a"/><linearGradient id="bi" x1="543.49" y1="398.28" x2="631.64" y2="398.28" xlink:href="#a"/><linearGradient id="bj" x1="452.61" y1="398.2" x2="540.48" y2="398.2" xlink:href="#a"/><linearGradient id="bk" x1="543.77" y1="450.83" x2="631.65" y2="450.83" xlink:href="#a"/><linearGradient id="bl" x1="749.25" y1="492.16" x2="774.06" y2="492.16" xlink:href="#a"/><linearGradient id="bm" x1="232.36" y1="374.02" x2="635.4" y2="374.02" xlink:href="#a"/><linearGradient id="bn" x1="414.11" y1="-29.56" x2="703.1" y2="516.78" xlink:href="#a"/><linearGradient id="bo" x1="501.84" y1="480.24" x2="605.53" y2="480.24" xlink:href="#w"/><linearGradient id="bp" x1="559.15" y1="379.45" x2="585.2" y2="379.45" xlink:href="#a"/><linearGradient id="bq" x1="523.37" y1="401.18" x2="548.18" y2="401.18" xlink:href="#a"/><linearGradient id="br" x1="565.72" y1="200.81" x2="816.72" y2="200.81" xlink:href="#a"/><linearGradient id="bs" x1="786.89" y1="435.55" x2="805.29" y2="435.55" xlink:href="#a"/><linearGradient id="bt" x1="637.95" y1="144.66" x2="737.67" y2="144.66" gradientUnits="userSpaceOnUse"><stop offset="0" stop-color="#1f3c79"/><stop offset="1" stop-color="#4fb7e9"/></linearGradient><linearGradient id="bu" x1="625.44" y1="119.32" x2="711.02" y2="121.56" xlink:href="#bt"/><linearGradient id="bv" x1="608.31" y1="103.52" x2="767.12" y2="103.52" xlink:href="#bt"/></defs><title>ui-ux</title><g class="a"><path class="b" d="M408.32,347.58,40.18,559.86l557,321.58L965.32,669.17ZM899.49,705,346.88,386,345.05,387l552.61,319L597.17,879.33,43.84,559.87,408.33,349.69,961.66,669.16ZM419.13,402.71l-14.41-8.32-10.81,6.24,25.29,14.6,25.13-14.51-10.88-6.28ZM419,386.12l-11.58,6.68,11.65,6.72,11.57-6.68Zm0-3.15,28,16.18,12.18-7-40.28-23.25-40,23.11,12.25,7.07ZM241.79,477.22,741.23,765.57,550.62,587.27ZM862.26,695.69,362.83,407.34l190.61,178.3ZM748.62,768.2,866.82,700,558,589.9ZM356.85,403.89Zm-1.41.82L237.23,473,546.06,583ZM235.83,473.77h0ZM439,624.16ZM715.1,783.55,442.5,626.16l77.28,112.77ZM319.5,693.17l195.32,44.62L437.53,625ZM318,694Zm3.47,2L594.06,853.43,516.78,740.66ZM599,854.56l118-68.14L521.75,741.8ZM193.74,499l37,21.38,7.75-4.47-37-21.39Zm194.32,95.64,7.75-4.47-10.6-6.12-7.75,4.47Zm-127.54-66-15.6-9-7.75,4.47,15.6,9Zm-21.81-20.19,43.18,24.94,7.75-4.48L246.45,504Zm-30.64-17.69,24.24,14,7.75-4.47-24.25-14Zm78.29,61.75L326,575.34l7.74-4.48L294.11,548ZM312,541.81l-7.75,4.48,33.19,19.16,7.75-4.48Zm28.06,32.75L332.34,579l10.4,6,7.75-4.47Zm-34.46-36.44L296,532.58l-7.75,4.47,9.6,5.54Zm-46.46-1.34,20.79,12,7.75-4.48-20.79-12Zm119.64,43.59-27.19-15.7-7.75,4.47,27.19,15.7Zm15.65,18,35,20.2,7.75-4.48-35-20.2Zm-45.32-9.62,28.39,16.39,7.75-4.48-28.39-16.39Zm531.63,61-24.71-14.27L841.2,644l24.71,14.27Zm-77.09-44.51L775.73,589l-14.86,8.58,28,16.14Zm46,26.55-39.59-22.86-14.86,8.58,39.59,22.86ZM733,564.39,696,543l-14.86,8.58,37,21.38ZM915.56,669.77l-28.39-16.39L872.31,662l28.39,16.39ZM769.33,585.35l-29.9-17.27-14.86,8.58,29.9,17.27ZM197.53,555l-6.58-3.8-5.32,3.07,6.59,3.8Zm-43.43-33.1,10.33,6,5.31-3.07-10.32-6Zm12.27-7.08,16.91,9.76,5.32-3.07-16.91-9.76ZM141.83,529l5.39,3.11,5.31-3.07-5.38-3.11ZM235,562.48,207.88,546.8l-5.32,3.07,27.17,15.68Zm-31.55-18.22L189.22,536l-5.31,3.07,14.26,8.23Zm37.31,70.19,5.31-3.07-7.27-4.2-5.31,3.07ZM227,543.68l-5.32,3.07,6.59,3.8,5.32-3.07Zm52.09,72.57-34.3-19.8-5.32,3.07,34.3,19.8ZM168.82,530.38l10.7,6.18,5.31-3.07-10.7-6.18Zm-17.21,4.24,29.63,17.11,5.32-3.07-29.64-17.11Zm36.06-7.52,29.63,17.11,5.32-3.07L193,524Zm108.1,62.42,22.78,13.14,5.31-3.07-22.77-13.14ZM149.92,576.15l14.27,8.23,5.31-3.07-14.26-8.23Zm66.62,4-19.21-11.08L192,572.12l19.2,11.08Zm-44.2-5.21,6.58,3.8,5.32-3.07-6.58-3.8Zm-3.76,12,27.16,15.68,5.32-3.07-27.17-15.68Zm-33.75-19.49,10.7,6.18,5.32-3.07-10.71-6.18ZM341,623.65l-46.28-26.71L289.4,600l46.28,26.71Zm-106.55-19-18.66-10.77-5.31,3.07,18.66,10.77ZM105,550.23l25.42,14.67,5.31-3.07-25.41-14.67Zm173.56,71.86,33,19,5.32-3.07-33-19Zm25.17.37L323.82,634l5.32-3.07-20.07-11.58Zm1.85-5.07-17.52-10.12-5.32,3.07,17.52,10.12ZM200.13,605.13l7.13,4.12,5.32-3.07-7.13-4.12Zm122.81.07,25.42,14.68,5.32-3.07-25.43-14.68Zm-111.29,6.59L231.13,623l5.32-3.07L217,608.72Zm61.93,21.59L299,648.05l5.31-3.07L278.9,630.31ZM245.19,617l24,13.86,5.32-3.07-24-13.86ZM129.56,536.06l12,6.91,5.32-3.07-12-6.91Zm131.2,27.1L238,550l-5.32,3.07,22.77,13.15Zm-36.07,7.51-22.77-13.14-5.31,3.07,22.77,13.14Zm29.84,3.06L239.43,565l-5.31,3.07,15.09,8.71Zm-61.59-7.22-23-13.3-5.32,3.06,23,13.31Zm85.46,21-19.49-11.25-5.31,3.07,19.48,11.25ZM117.29,543.14l16.64,9.61,5.31-3.07-16.63-9.61Zm48.22,7.53-14.27-8.24-5.32,3.07,14.27,8.24Zm7.76,18.65-29.64-17.11-5.31,3.07L168,572.39Zm110.54,7.15-18.66-10.78-5.32,3.07,18.66,10.78ZM247.74,584l-18.65-10.77-5.32,3.07,18.66,10.77Zm-7.33,9.94-19.48-11.25-5.32,3.07L235.09,597Zm-57.1-12.66,22.78,13.15,5.31-3.07-22.77-13.15Zm100.38,23.47L265,594,259.71,597l18.66,10.77Zm-23.05-13.3-8.51-4.91-5.31,3.07,8.5,4.91Zm16.83,1.68,8.33,4.82,5.32-3.07-8.33-4.81Zm5.41-11,8.5,4.91,5.32-3.07L288.2,579Z" transform="translate(-40.18 -198.56)"/><path class="c" d="M521.46,719.92,356.1,624.44c-8.34-4.81-12.48-11.22-12.59-18,0-.59,0-13.56.06-14.16.69-7.8,6.69-3.5,17.75-9.89L750.16,357.94c21.53-12.44,54.12-13.79,72.77-3l165.36,95.47c8.33,4.81,12.47-3.65,12.59,3.08,0,.58,0,16-.06,16.64-.67,7.81-6.67,15.9-17.76,22.3L594.23,716.9C572.69,729.33,540.11,730.68,521.46,719.92Z" transform="translate(-40.18 -198.56)"/><path class="d" d="M750.16,357.26c21.53-12.43,54.12-13.78,72.77-3l165.36,95.47c8.14,4.7,11.75-3.18,12.46,3.35.08.78.13,15.72,0,16.52-.91,7.74-6.72,15.79-17.73,22.14L594.23,716.22c-21.54,12.44-54.12,13.79-72.77,3L356.1,623.77c-8.3-4.79-12.36-11.18-12.59-17.88,0-.76.08-13.3.21-14.08,1.22-7.6,6.74-3.78,17.6-10Z" transform="translate(-40.18 -198.56)"/><path class="e" d="M750.16,356.59c21.53-12.44,54.12-13.79,72.77-3L988.29,449c8,4.6,11.28-2.69,12.33,3.64.16,1,.28,15.39.14,16.39-1.06,7.68-6.76,15.67-17.7,22L594.23,715.55c-21.54,12.43-54.12,13.79-72.77,3L356.1,623.1c-8.26-4.77-12.28-11.13-12.58-17.8,0-.93.14-13,.34-14,1.56-7.41,6.8-4.07,17.46-10.23Z" transform="translate(-40.18 -198.56)"/><path class="f" d="M750.16,355.91c21.53-12.43,54.12-13.78,72.77-3l165.36,95.47c7.78,4.49,10.93-2.21,12.19,3.91.25,1.18.44,15.07.25,16.28-1.16,7.61-6.81,15.55-17.67,21.82L594.23,714.87c-21.54,12.44-54.12,13.79-72.77,3L356.1,622.42c-8.23-4.75-12.22-11.07-12.57-17.71-.06-1.09.2-12.77.48-13.91,1.78-7.22,6.85-4.35,17.31-10.39Z" transform="translate(-40.18 -198.56)"/><path class="g" d="M750.16,355.24c21.53-12.44,54.12-13.79,72.77-3l165.36,95.47c7.59,4.39,10.65-1.74,12.06,4.2a155.23,155.23,0,0,1,.35,16.15c-1.24,7.56-6.85,15.44-17.64,21.67L594.23,714.2c-21.54,12.44-54.12,13.79-72.77,3L356.1,621.75c-8.19-4.73-12.17-11-12.57-17.63-.07-1.26.26-12.51.62-13.83,2-7,6.91-4.63,17.17-10.56Z" transform="translate(-40.18 -198.56)"/><path class="h" d="M750.16,354.56c21.53-12.43,54.12-13.78,72.77-3L988.29,447c7.41,4.28,10.41-1.28,11.93,4.47.42,1.58.74,14.42.45,16-1.31,7.5-6.9,15.32-17.61,21.5L594.23,713.53c-21.54,12.43-54.12,13.78-72.77,3L356.1,621.07c-8.16-4.71-12.13-11-12.56-17.53-.1-1.43.31-12.26.76-13.76,2.07-6.88,7-4.91,17-10.72Z" transform="translate(-40.18 -198.56)"/><path class="i" d="M750.16,353.89c21.53-12.44,54.12-13.79,72.77-3l165.36,95.47c7.23,4.18,10.19-.81,11.8,4.76.51,1.78.89,14.09.55,15.91-1.36,7.45-6.94,15.21-17.58,21.35L594.23,712.85c-21.54,12.44-54.12,13.79-72.77,3L356.1,620.4C348,615.71,344,609.48,343.54,603c-.11-1.6.36-12,.9-13.68,2.18-6.72,7-5.19,16.88-10.89Z" transform="translate(-40.18 -198.56)"/><path class="j" d="M750.16,353.21c21.53-12.43,54.12-13.78,72.77-3l165.36,95.47c7,4.07,10-.36,11.67,5,.61,2,1,13.76.65,15.8-1.41,7.39-7,15.09-17.55,21.18L594.23,712.18c-21.54,12.43-54.12,13.78-72.77,3L356.1,619.72c-8.09-4.67-12.06-10.86-12.55-17.36-.13-1.77.4-11.73,1-13.6,2.26-6.57,7.06-5.47,16.73-11Z" transform="translate(-40.18 -198.56)"/><path class="k" d="M750.16,352.54c21.53-12.44,54.12-13.79,72.77-3L988.29,445c6.86,4,9.81.1,11.54,5.32.72,2.18,1.2,13.43.76,15.67-1.46,7.34-7,15-17.53,21L594.23,711.5c-21.54,12.44-54.12,13.79-72.77,3L356.1,619.05c-8.05-4.65-12-10.81-12.54-17.28-.16-1.93.44-11.47,1.18-13.51,2.32-6.43,7.11-5.76,16.58-11.23Z" transform="translate(-40.18 -198.56)"/><path class="l" d="M750.16,351.86c21.53-12.43,54.12-13.78,72.77-3l165.36,95.47c6.68,3.85,9.64.54,11.4,5.59.84,2.38,1.37,13.11.87,15.56-1.5,7.29-7.09,14.85-17.5,20.86L594.23,710.83c-21.54,12.43-54.12,13.78-72.77,3L356.1,618.37c-8-4.62-12-10.75-12.54-17.19-.17-2.1.48-11.21,1.32-13.43,2.39-6.28,7.17-6,16.44-11.39Z" transform="translate(-40.18 -198.56)"/><path class="m" d="M750.16,351.19c21.53-12.44,54.12-13.79,72.77-3l165.36,95.47c6.49,3.75,9.47,1,11.27,5.88,1,2.57,1.53,12.78,1,15.43-1.54,7.24-7.13,14.74-17.47,20.71L594.23,710.15c-21.54,12.44-54.12,13.79-72.77,3L356.1,617.7c-8-4.61-12-10.7-12.53-17.11-.2-2.26.5-11,1.46-13.35,2.44-6.14,7.22-6.32,16.29-11.56Z" transform="translate(-40.18 -198.56)"/><path class="n" d="M750.16,350.52c21.53-12.44,54.12-13.79,72.77-3L988.29,443c6.31,3.64,9.31,1.42,11.14,6.15,1.07,2.76,1.69,12.46,1.07,15.31-1.57,7.2-7.18,14.63-17.44,20.55L594.23,709.48c-21.54,12.43-54.12,13.78-72.77,3L356.1,617c-7.94-4.58-11.94-10.64-12.52-17-.23-2.43.52-10.7,1.59-13.27,2.49-6,7.28-6.6,16.15-11.72Z" transform="translate(-40.18 -198.56)"/><path class="o" d="M750.16,349.84c21.53-12.43,54.12-13.79,72.77-3l165.36,95.47c6.13,3.54,9.15,1.87,11,6.44,1.2,2.94,1.86,12.13,1.17,15.19-1.6,7.14-7.22,14.51-17.41,20.39L594.23,708.8c-21.54,12.44-54.12,13.79-72.77,3L356.1,616.35c-7.91-4.57-11.91-10.59-12.52-16.94-.25-2.59.55-10.45,1.74-13.19,2.54-5.86,7.33-6.88,16-11.89Z" transform="translate(-40.18 -198.56)"/><path class="p" d="M750.16,349.17c21.53-12.44,54.12-13.79,72.77-3l165.36,95.47c5.94,3.43,9,2.29,10.88,6.71,1.34,3.13,2,11.82,1.27,15.07-1.64,7.1-7.27,14.4-17.38,20.24L594.23,708.13c-21.54,12.43-54.12,13.78-72.77,3L356.1,615.67c-7.87-4.54-11.89-10.53-12.51-16.85-.28-2.76.56-10.2,1.87-13.11,2.59-5.73,7.39-7.16,15.86-12.05Z" transform="translate(-40.18 -198.56)"/><path class="q" d="M750.16,348.49c21.53-12.43,54.12-13.78,72.77-3L988.29,441c5.76,3.32,8.83,2.72,10.75,7,1.48,3.31,2.19,11.49,1.37,14.95-1.67,7.05-7.31,14.28-17.35,20.07L594.23,707.45c-21.54,12.44-54.12,13.79-72.77,3L356.1,615c-7.84-4.53-11.86-10.48-12.51-16.76-.3-2.93.58-10,2-13,2.62-5.61,7.44-7.45,15.71-12.23Z" transform="translate(-40.18 -198.56)"/><path class="r" d="M750.16,347.82c21.53-12.44,54.12-13.79,72.77-3l165.36,95.47c5.58,3.22,8.68,3.15,10.62,7.27,1.64,3.48,2.36,11.17,1.47,14.83-1.7,7-7.36,14.17-17.32,19.92L594.23,706.78c-21.54,12.43-54.12,13.78-72.77,3L356.1,614.32c-7.8-4.5-11.84-10.42-12.5-16.67-.33-3.1.58-9.72,2.15-12.95,2.67-5.48,7.5-7.73,15.57-12.39Z" transform="translate(-40.18 -198.56)"/><path class="s" d="M750.16,347.14c21.53-12.43,54.12-13.78,72.77-3L988.29,439.6c5.39,3.11,8.52,3.57,10.48,7.55,1.81,3.65,2.54,10.84,1.58,14.71-1.72,6.95-7.4,14-17.29,19.75L594.23,706.1c-21.54,12.44-54.12,13.79-72.77,3L356.1,613.65c-7.77-4.48-11.82-10.37-12.49-16.59a28.6,28.6,0,0,1,2.29-12.87c2.7-5.36,7.55-8,15.42-12.56Z" transform="translate(-40.18 -198.56)"/><path class="t" d="M750.16,346.47c21.53-12.44,54.12-13.79,72.77-3l165.36,95.47c5.21,3,8.37,4,10.35,7.83a24.39,24.39,0,0,1,1.69,14.59c-1.76,6.91-7.46,13.93-17.27,19.6L594.23,705.43c-21.54,12.43-54.12,13.78-72.77,3L356.1,613c-7.73-4.47-11.79-10.32-12.49-16.51A26.44,26.44,0,0,1,346,583.68c2.75-5.24,7.61-8.29,15.28-12.72Z" transform="translate(-40.18 -198.56)"/><path class="u" d="M750.16,345.79c21.53-12.43,54.12-13.78,72.77-3l165.36,95.47c5,2.9,8.21,4.41,10.22,8.1a22.22,22.22,0,0,1,1.79,14.47c-1.79,6.87-7.5,13.82-17.24,19.44L594.23,704.75c-21.54,12.44-54.12,13.79-72.77,3L356.1,612.3c-7.7-4.44-11.77-10.26-12.48-16.42a24.17,24.17,0,0,1,2.57-12.71c2.78-5.12,7.66-8.57,15.13-12.88Z" transform="translate(-40.18 -198.56)"/><path class="v" d="M750.16,345.12c21.53-12.44,54.12-13.79,72.77-3l165.36,95.47c4.84,2.8,8.06,4.82,10.09,8.39a20.37,20.37,0,0,1,1.89,14.35c-1.82,6.82-7.55,13.7-17.21,19.28L594.23,704.08c-21.54,12.43-54.12,13.79-72.77,3L356.1,611.63c-7.66-4.43-11.75-10.21-12.48-16.34a22.42,22.42,0,0,1,2.72-12.63c2.82-5,7.71-8.85,15-13Z" transform="translate(-40.18 -198.56)"/><path class="w" d="M750.16,344.44c21.53-12.43,54.12-13.78,72.77-3L988.29,436.9c4.66,2.69,7.9,5.23,10,8.66a18.7,18.7,0,0,1,2,14.23c-1.84,6.78-7.59,13.59-17.18,19.12L594.23,703.4c-21.54,12.44-54.12,13.79-72.77,3L356.1,611c-7.62-4.4-11.73-10.15-12.47-16.25a20.7,20.7,0,0,1,2.85-12.54c2.86-4.91,7.77-9.14,14.84-13.22Z" transform="translate(-40.18 -198.56)"/><path class="x" d="M521.46,705.75,356.1,610.28c-18.65-10.77-16.32-29.58,5.22-42L750.16,343.77c21.53-12.44,54.12-13.79,72.77-3l165.36,95.47c18.65,10.77,16.31,29.58-5.23,42L594.23,702.73C572.69,715.17,540.11,716.52,521.46,705.75Z" transform="translate(-40.18 -198.56)"/><path class="y" d="M521.62,709.8,356.26,614.33c-18.65-10.77-16.31-29.58,5.23-42L750.32,347.82c21.54-12.43,54.12-13.78,72.77-3l165.36,95.48c18.66,10.76,16.32,29.58-5.22,42L594.4,706.78C572.86,719.22,540.28,720.57,521.62,709.8Z" transform="translate(-40.18 -198.56)"/><path class="z" d="M365.5,572.7,751.43,349.89c20.06-11.58,50.4-12.84,67.77-2.81l163.59,94.45c17.37,10,15.19,27.55-4.86,39.13L592,703.47c-20.06,11.58-50.4,12.84-67.77,2.81L360.64,611.83C343.26,601.8,345.44,584.28,365.5,572.7Z" transform="translate(-40.18 -198.56)"/><path class="aa" d="M369.51,573.09,752.53,352c18.58-10.72,46.68-11.89,62.77-2.6l161.83,93.43c16.09,9.29,14.07,25.52-4.51,36.24l-383,221.14c-18.58,10.72-46.68,11.89-62.76,2.6L365,609.33C348.92,600,350.94,583.82,369.51,573.09Z" transform="translate(-40.18 -198.56)"/><polygon class="ab" points="823.39 94.09 751.95 52.84 756.57 50.17 828.01 91.42 823.39 94.09"/><path class="ac" d="M815.6,310.49l9.47,5.47,4.7-2.72-9.47-5.46ZM841,332.25l-5.83-3.36-4.7,2.72L836.3,335Zm5.27-9.48-12.62-7.29L829,318.2l12.62,7.28Zm29,17.23-25.14-15-4.7,2.71,25.14,15Zm-38.35,2.44-20.38-11.77-4.7,2.72,20.38,11.77Zm-24.26-14-12.62-7.28-4.7,2.71L808,331.15Zm-12.3-14.2,26.21,15.13,4.7-2.71-26.2-15.13Zm19.16,30.69-26.21-15.13-4.7,2.72,26.21,15.13Zm45.48,1.2L844.88,334.5l-4.7,2.71,20.14,11.63Zm-13.74,4.59-10.46-6-4.7,2.72,10.46,6Zm-34.86-45.17-9.13-5.28-4.7,2.72,9.13,5.27Zm-27,22-14.71-8.49-4.7,2.71,14.71,8.5Zm6.73-8.64-10.59-6.12-4.7,2.72,10.58,6.11Zm5-9.63-4.76-2.75-4.7,2.71L796.5,312Z" transform="translate(-40.18 -198.56)"/><path class="ad" d="M795.12,288.91,727.46,328l-67.53-39,67.66-39.07,67.53,39Zm5,0L727.58,247l-72.7,42,72.59,41.91,72.7-42Z" transform="translate(-40.18 -198.56)"/><path class="ae" d="M946.31,305.81l-177-102.19c-11.66-6.72-30.56-6.76-42.15-.07l-285,164.56,1.68,1,285-164.57c10.66-6.15,28-6.12,38.78.07l177,102.19c10.73,6.19,10.78,16.23.13,22.38L658,494.73l1.68,1L946.44,330.14C958,323.45,958,312.54,946.31,305.81Z" transform="translate(-40.18 -198.56)"/><g class="af"><path class="ag" d="M583.46,785.85c11.21,0,21.39-2.45,29.43-7.1l410.05-236c10.73-6.2,16.89-16,16.88-26.9,0-11.94-7.41-23.07-20.33-30.53L842.62,383.18c-10.15-5.86-22.84-9.09-35.74-9.09-11.21,0-21.39,2.46-29.43,7.1l-410.05,236c-10.73,6.2-16.88,16-16.88,26.9,0,11.94,7.41,23.07,20.33,30.54L547.72,776.76C557.87,782.62,570.56,785.85,583.46,785.85Z" transform="translate(-40.18 -198.56)"/><path class="ah" d="M777.78,381.9l-410,236c-10.31,6-16.15,15.3-16.1,25.66.05,11.32,7.15,21.91,19.55,29.07l168.88,97.51c.28.16,8.56,4.89,8.88,5a70.56,70.56,0,0,0,36,8.06,63.11,63.11,0,0,0,29-7.75l407.79-234.72c10.31-6,16.15-15.31,16.1-25.67,0-11.32-7.15-21.91-19.55-29.07L842.45,384.5a74.11,74.11,0,0,0-13.06-5.81,75.77,75.77,0,0,0-22.33-3.64C795.94,374.94,785.74,377.3,777.78,381.9Z" transform="translate(-40.18 -198.56)"/><path class="ai" d="M778.11,382.6l-410,236c-9.89,5.7-15.41,14.6-15.31,24.42.1,10.69,6.88,20.75,18.76,27.61l169.68,98c.55.31,8.34,4.71,9,4.91a68.55,68.55,0,0,0,36.19,7c9.18,0,22-4.61,28.61-8.41l405.52-233.42c9.88-5.71,15.41-14.6,15.31-24.42-.1-10.7-6.88-20.75-18.76-27.61L842.28,385.82a84.39,84.39,0,0,0-12.92-5.9A75.63,75.63,0,0,0,807.24,376C796.21,375.78,786,378.05,778.11,382.6Z" transform="translate(-40.18 -198.56)"/><path class="aj" d="M778.44,383.31l-410.05,236c-9.47,5.47-14.68,13.91-14.53,23.19.15,10.07,6.62,19.58,18,26.14l170.48,98.43c.82.47,8.11,4.54,9.06,4.84a66.49,66.49,0,0,0,36.42,6c8.15,0,22.34-5.69,28.19-9.07l403.26-232.11c9.46-5.47,14.67-13.91,14.52-23.19-.15-10.07-6.61-19.59-18-26.14L842.11,387.14a97.82,97.82,0,0,0-12.78-6A75.55,75.55,0,0,0,807.42,377C796.48,376.63,786.25,378.8,778.44,383.31Z" transform="translate(-40.18 -198.56)"/><path class="ak" d="M778.77,384l-410,236c-9.05,5.22-13.94,13.21-13.74,22,.2,9.44,6.35,18.42,17.19,24.68l171.28,98.89c1.08.63,7.88,4.36,9.15,4.75a64.34,64.34,0,0,0,36.64,5c7.14,0,22.67-6.77,27.79-9.73l401-230.81c9-5.22,13.94-13.21,13.74-22-.21-9.44-6.36-18.42-17.19-24.68L841.94,388.45a117.85,117.85,0,0,0-12.64-6.08,75.08,75.08,0,0,0-21.7-4.47C796.75,377.47,786.51,379.55,778.77,384Z" transform="translate(-40.18 -198.56)"/><path class="al" d="M779.09,384.72l-410,236c-8.62,5-13.21,12.52-13,20.72.26,8.81,6.09,17.26,16.4,23.21L544.57,764a96.49,96.49,0,0,0,9.25,4.68c11.47,5,25.41,6.5,36.87,3.95,6.11,0,23-7.85,27.37-10.39l398.73-229.5c8.62-5,13.2-12.52,13-20.71-.25-8.82-6.09-17.27-16.4-23.22L841.77,389.77c-2.21-1.27-10-5.25-12.5-6.17a74.35,74.35,0,0,0-21.49-4.74C797,378.31,786.76,380.3,779.09,384.72Z" transform="translate(-40.18 -198.56)"/><path class="am" d="M779.42,385.43l-410,236c-8.2,4.74-12.47,11.82-12.17,19.48.3,8.19,5.82,16.1,15.61,21.75L545.7,762.49a83.32,83.32,0,0,0,9.33,4.6c11.74,4.86,25.94,6,37.1,2.92,5.1,0,23.31-8.93,27-11l396.47-228.21c8.19-4.73,12.46-11.81,12.16-19.47-.3-8.2-5.82-16.1-15.61-21.75L841.6,391.09c-1.84-1.06-10.27-5.48-12.36-6.27a74.29,74.29,0,0,0-21.28-5C797.3,379.16,787,381.05,779.42,385.43Z" transform="translate(-40.18 -198.56)"/><path class="an" d="M779.75,386.14l-410,236c-7.77,4.49-11.73,11.12-11.38,18.24.36,7.56,5.56,14.93,14.83,20.28L546.83,761a72.33,72.33,0,0,0,9.42,4.52c12,4.69,26.45,5.46,37.32,1.89,4.08,0,23.63-10,26.56-11.7l394.19-226.9c7.78-4.49,11.74-11.12,11.39-18.24-.36-7.57-5.56-14.94-14.83-20.29L841.43,392.41c-1.47-.85-10.55-5.72-12.22-6.36-6.52-2.52-13.66-4.75-21.07-5.29C797.57,380,787.27,381.8,779.75,386.14Z" transform="translate(-40.18 -198.56)"/><path class="ao" d="M780.08,386.84,370,622.86c-7.35,4.25-11,10.43-10.59,17,.4,6.95,5.29,13.78,14,18.83L548,759.42a62.63,62.63,0,0,0,9.51,4.44c12.27,4.53,27,4.95,37.55.87,3.06,0,24-11.09,26.14-12.36l391.93-225.6c7.36-4.24,11-10.42,10.6-17-.41-6.94-5.3-13.77-14-18.82L841.26,393.73c-1.11-.64-10.84-6-12.09-6.46-6.43-2.57-13.49-4.94-20.84-5.56C797.84,380.85,787.52,382.55,780.08,386.84Z" transform="translate(-40.18 -198.56)"/><path class="ap" d="M780.41,387.55l-410,236c-6.93,4-10.26,9.72-9.81,15.76.46,6.32,5,12.62,13.26,17.36l175.27,101.2a57.41,57.41,0,0,0,9.61,4.36c12.54,4.36,27.48,4.43,37.77-.16,2,0,24.27-12.17,25.73-13l389.67-224.29c6.94-4,10.26-9.72,9.81-15.76-.45-6.32-5-12.62-13.25-17.36L841.09,395.05c-.74-.43-11.12-6.21-12-6.55-6.36-2.62-13.33-5.14-20.63-5.83C798.11,381.69,787.77,383.3,780.41,387.55Z" transform="translate(-40.18 -198.56)"/><path class="aq" d="M780.74,388.25l-410,236c-6.51,3.76-9.52,9-9,14.52.5,5.7,4.77,11.45,12.47,15.9L550.21,756.36a52.06,52.06,0,0,0,9.7,4.28c12.8,4.19,28,3.91,38-1.19,1,0,24.59-13.25,25.32-13.68l387.4-223c6.51-3.75,9.53-9,9-14.52-.51-5.69-4.77-11.45-12.47-15.9l-166.27-96c-.37-.22-11.39-6.47-11.81-6.64-6.29-2.67-13.17-5.35-20.42-6.11C798.38,382.53,788,384.05,780.74,388.25Z" transform="translate(-40.18 -198.56)"/><path d="M599.35,756.81l410.05-236c12.31-7.11,10.77-19.52-3.45-27.72L829.08,391c-14.21-8.2-35.71-9.09-48-2L371,625c-12.31,7.11-10.76,19.52,3.45,27.73L551.34,754.82C565.55,763,587.05,763.92,599.35,756.81Z" transform="translate(-40.18 -198.56)"/></g><path class="ar" d="M520.82,710.58,355.46,615.11c-8.34-4.81-12.48-11.23-12.59-18,0-.6,0-5.73.06-6.33.69-7.8,6.69-3.51,17.75-9.89l388.83-224.5c21.54-12.43,54.12-13.78,72.78-3l165.36,95.47c8.32,4.8,12.47-3.66,12.59,3.07,0,.59,0,8.22-.06,8.81-.67,7.81-6.67,15.9-17.76,22.3L593.59,707.56C572.05,720,539.47,721.35,520.82,710.58Z" transform="translate(-40.18 -198.56)"/><path class="as" d="M749.51,355.76c21.54-12.44,54.12-13.79,72.78-3l165.36,95.47c8.18,4.72,12-3.15,12.5,3.44.05.69.08,8.1,0,8.8-.66,7.82-6.66,15.91-17.76,22.32L593.59,707.26c-21.54,12.44-54.12,13.79-72.77,3L355.46,614.81c-8.37-4.83-12.54-11.27-12.59-18,0-.66.06-5.66.14-6.33.93-7.69,6.74-3.88,17.67-10.19Z" transform="translate(-40.18 -198.56)"/><path class="at" d="M749.51,355.08c21.54-12.43,54.12-13.78,72.78-3l165.36,95.47c8,4.63,11.7-2.64,12.41,3.79.09.8.18,8,.12,8.8-.63,7.82-6.65,15.93-17.76,22.34L593.59,707c-21.54,12.44-54.12,13.79-72.77,3L355.46,614.51c-8.39-4.85-12.58-11.32-12.59-18.11,0-.74.1-5.59.22-6.34,1.12-7.57,6.8-4.25,17.59-10.48Z" transform="translate(-40.18 -198.56)"/><path class="au" d="M749.51,354.41c21.54-12.44,54.12-13.79,72.78-3l165.36,95.47c7.88,4.55,11.43-2.12,12.33,4.16.13.91.27,7.85.2,8.78-.61,7.84-6.64,15.95-17.76,22.37L593.59,706.66c-21.54,12.43-54.12,13.78-72.77,3L355.46,614.2c-8.42-4.86-12.63-11.36-12.59-18.17,0-.81.15-5.52.29-6.35,1.29-7.45,6.87-4.63,17.52-10.78Z" transform="translate(-40.18 -198.56)"/><path class="av" d="M749.51,353.73c21.54-12.43,54.12-13.78,72.78-3l165.36,95.47c7.73,4.46,11.19-1.62,12.24,4.51.18,1,.37,7.74.29,8.78-.6,7.84-6.63,16-17.76,22.38L593.59,706.36c-21.54,12.43-54.12,13.78-72.77,3L355.46,613.9C347,609,342.8,602.5,342.87,595.66c0-.89.19-5.45.37-6.35,1.43-7.35,6.93-5,17.44-11.08Z" transform="translate(-40.18 -198.56)"/><path class="aw" d="M749.51,353.06c21.54-12.44,54.12-13.79,72.78-3l165.36,95.47c7.59,4.38,11-1.11,12.15,4.88a80.08,80.08,0,0,1,.38,8.77c-.58,7.84-6.62,16-17.76,22.4L593.59,706.05c-21.54,12.44-54.12,13.79-72.77,3L355.46,613.6c-8.48-4.89-12.7-11.45-12.58-18.31,0-1,.23-5.38.44-6.36,1.54-7.24,7-5.39,17.36-11.38Z" transform="translate(-40.18 -198.56)"/><path class="ax" d="M749.51,352.38c21.54-12.43,54.12-13.78,72.78-3l165.36,95.47c7.44,4.29,10.8-.61,12.07,5.23a71.32,71.32,0,0,1,.47,8.76c-.58,7.86-6.62,16-17.77,22.43L593.59,705.75c-21.54,12.44-54.12,13.79-72.77,3L355.46,613.3c-8.51-4.91-12.73-11.5-12.58-18.38a62.57,62.57,0,0,1,.51-6.37c1.65-7.13,7.05-5.76,17.29-11.67Z" transform="translate(-40.18 -198.56)"/><path class="ay" d="M749.51,351.71c21.54-12.44,54.12-13.79,72.78-3l165.36,95.47c7.29,4.22,10.63-.1,12,5.6a60.94,60.94,0,0,1,.56,8.75c-.57,7.86-6.61,16-17.77,22.45L593.59,705.45c-21.54,12.44-54.12,13.79-72.77,3L355.46,613c-8.54-4.93-12.76-11.54-12.58-18.45a55.42,55.42,0,0,1,.59-6.38c1.74-7,7.11-6.13,17.21-12Z" transform="translate(-40.18 -198.56)"/><path class="az" d="M749.51,351c21.54-12.43,54.12-13.78,72.78-3l165.36,95.47c7.14,4.13,10.47.4,11.89,5.95a53.45,53.45,0,0,1,.65,8.75c-.56,7.86-6.6,16-17.77,22.47L593.59,705.15c-21.54,12.43-54.12,13.78-72.77,3L355.46,612.7c-8.57-5-12.79-11.59-12.58-18.53a49.72,49.72,0,0,1,.67-6.37c1.82-6.93,7.17-6.52,17.13-12.27Z" transform="translate(-40.18 -198.56)"/><path class="ba" d="M749.51,350.36c21.54-12.43,54.12-13.79,72.78-3l165.36,95.47c7,4.05,10.32.9,11.81,6.32a47.42,47.42,0,0,1,.73,8.73c-.55,7.88-6.59,16-17.77,22.49L593.59,704.85c-21.54,12.43-54.12,13.78-72.77,3L355.46,612.39c-8.59-5-12.81-11.63-12.58-18.59a46.74,46.74,0,0,1,.74-6.38c1.91-6.83,7.23-6.89,17.06-12.57Z" transform="translate(-40.18 -198.56)"/><path class="bb" d="M749.51,349.69c21.54-12.44,54.12-13.79,72.78-3l165.36,95.47c6.85,4,10.18,1.39,11.72,6.67a42.05,42.05,0,0,1,.82,8.73c-.54,7.88-6.58,16.06-17.77,22.51L593.59,704.55c-21.54,12.43-54.12,13.78-72.77,3L355.46,612.09c-8.62-5-12.84-11.67-12.57-18.66a39.2,39.2,0,0,1,.81-6.39c2-6.73,7.29-7.27,17-12.86Z" transform="translate(-40.18 -198.56)"/><path class="bc" d="M749.51,349c21.54-12.43,54.12-13.78,72.78-3l165.36,95.47c6.7,3.88,10,1.89,11.64,7a37.77,37.77,0,0,1,.9,8.72c-.53,7.88-6.57,16.07-17.77,22.53L593.59,704.24c-21.54,12.44-54.12,13.79-72.77,3L355.46,611.79c-8.65-5-12.86-11.72-12.57-18.73a36.49,36.49,0,0,1,.89-6.4c2-6.63,7.35-7.64,16.9-13.16Z" transform="translate(-40.18 -198.56)"/><path class="bd" d="M749.51,348.34c21.54-12.44,54.12-13.79,72.78-3l165.36,95.47c6.55,3.79,9.91,2.37,11.55,7.39a34.33,34.33,0,0,1,1,8.72c-.53,7.89-6.56,16.08-17.77,22.55L593.59,703.94c-21.54,12.44-54.12,13.79-72.77,3L355.46,611.49c-8.68-5-12.88-11.77-12.57-18.8a33.28,33.28,0,0,1,1-6.4c2.09-6.54,7.41-8,16.82-13.46Z" transform="translate(-40.18 -198.56)"/><path class="be" d="M749.51,347.66c21.54-12.43,54.12-13.78,72.78-3l165.36,95.48c6.4,3.7,9.78,2.85,11.46,7.75a31.36,31.36,0,0,1,1.09,8.7c-.53,7.9-6.56,16.1-17.78,22.58L593.59,703.64c-21.54,12.44-54.12,13.79-72.77,3L355.46,611.19c-8.71-5-12.9-11.81-12.57-18.87a31.26,31.26,0,0,1,1-6.41c2.16-6.45,7.47-8.4,16.75-13.76Z" transform="translate(-40.18 -198.56)"/><path class="bf" d="M749.51,347c21.54-12.44,54.12-13.79,72.78-3l165.36,95.47c6.26,3.62,9.65,3.34,11.38,8.11a28.67,28.67,0,0,1,1.17,8.7c-.52,7.9-6.55,16.11-17.78,22.6L593.59,703.34c-21.54,12.43-54.12,13.78-72.77,3L355.46,610.88c-8.74-5-12.92-11.85-12.57-18.93a29.13,29.13,0,0,1,1.12-6.42c2.21-6.35,7.53-8.77,16.67-14Z" transform="translate(-40.18 -198.56)"/><path class="bg" d="M749.51,346.31c21.54-12.43,54.12-13.78,72.78-3l165.36,95.47c6.11,3.53,9.53,3.82,11.29,8.47a26.08,26.08,0,0,1,1.26,8.69c-.51,7.91-6.54,16.13-17.78,22.61L593.59,703c-21.54,12.43-54.12,13.78-72.77,3L355.46,610.58c-8.77-5.06-12.94-11.89-12.57-19a27.25,27.25,0,0,1,1.2-6.42c2.26-6.26,7.59-9.15,16.59-14.35Z" transform="translate(-40.18 -198.56)"/><path class="bh" d="M749.51,345.64c21.54-12.44,54.12-13.79,72.78-3l165.36,95.47c6,3.45,9.41,4.31,11.2,8.83a24.25,24.25,0,0,1,1.35,8.68c-.5,7.92-6.53,16.15-17.78,22.64L593.59,702.73c-21.54,12.44-54.12,13.79-72.77,3L355.46,610.28c-8.79-5.08-13-11.94-12.56-19.08a25.87,25.87,0,0,1,1.26-6.42c2.31-6.18,7.66-9.53,16.52-14.65Z" transform="translate(-40.18 -198.56)"/><path class="bi" d="M749.51,345c21.54-12.43,54.12-13.78,72.78-3l165.36,95.47c5.81,3.36,9.28,4.78,11.12,9.19a22.36,22.36,0,0,1,1.43,8.67c-.51,7.92-6.52,16.16-17.78,22.66L593.59,702.43c-21.54,12.44-54.12,13.79-72.77,3L355.46,610c-8.82-5.09-13-12-12.56-19.15a24.35,24.35,0,0,1,1.34-6.43c2.36-6.1,7.71-9.91,16.44-14.94Z" transform="translate(-40.18 -198.56)"/><path class="bj" d="M749.51,344.29c21.54-12.44,54.12-13.79,72.78-3l165.36,95.47c5.67,3.28,9.16,5.26,11,9.55a20.83,20.83,0,0,1,1.52,8.67c-.5,7.93-6.51,16.17-17.78,22.68L593.59,702.13c-21.54,12.44-54.12,13.79-72.77,3L355.46,609.68c-8.85-5.11-13-12-12.56-19.22a22.83,22.83,0,0,1,1.42-6.44c2.41-6,7.77-10.28,16.36-15.24Z" transform="translate(-40.18 -198.56)"/><path class="bk" d="M749.51,343.61c21.54-12.43,54.12-13.78,72.78-3l165.36,95.47c5.52,3.19,9,5.73,10.94,9.91a19.45,19.45,0,0,1,1.62,8.65c-.5,7.94-6.51,16.2-17.79,22.71L593.59,701.83c-21.54,12.43-54.12,13.79-72.77,3L355.46,609.38c-8.88-5.13-13-12.08-12.56-19.29a21.4,21.4,0,0,1,1.5-6.45c2.45-5.92,7.83-10.65,16.28-15.53Z" transform="translate(-40.18 -198.56)"/><path class="bl" d="M749.51,342.94c21.54-12.44,54.12-13.79,72.78-3l165.36,95.47c5.37,3.11,8.92,6.2,10.86,10.27a18.19,18.19,0,0,1,1.7,8.65c-.49,7.94-6.5,16.21-17.79,22.72L593.59,701.53c-21.54,12.43-54.12,13.78-72.77,3L355.46,609.07c-8.91-5.14-13-12.11-12.56-19.35a20.35,20.35,0,0,1,1.57-6.45c2.5-5.85,7.9-11,16.21-15.84Z" transform="translate(-40.18 -198.56)"/><path class="bm" d="M520.82,704.24,355.46,608.77c-18.66-10.77-16.32-29.58,5.22-42l388.83-224.5c21.54-12.43,54.12-13.78,72.78-3l165.36,95.47c18.65,10.77,16.31,29.58-5.23,42L593.59,701.23C572.05,713.66,539.47,715,520.82,704.24Z" transform="translate(-40.18 -198.56)"/><path class="bn" d="M910.35,534.15l11.56-6.68a6.24,6.24,0,0,0,2.62-5h0c0-1.93-1.17-2.81-2.62-2l-11.56,6.68a6.26,6.26,0,0,0-2.61,5h0C907.74,534.1,908.91,535,910.35,534.15Z" transform="translate(-40.18 -198.56)"/><path class="bm" d="M909.31,533.78a1.49,1.49,0,0,0,.7-.22l11.56-6.68a5.61,5.61,0,0,0,2.27-4.4c0-.74-.23-1.61-.89-1.61a1.56,1.56,0,0,0-.7.22l-11.56,6.68a5.61,5.61,0,0,0-2.27,4.4C908.42,532.91,908.65,533.78,909.31,533.78Z" transform="translate(-40.18 -198.56)"/><path class="bo" d="M889.71,546.06l11.56-6.67a6.24,6.24,0,0,0,2.62-5h0c0-1.93-1.17-2.81-2.62-2l-11.56,6.68a6.25,6.25,0,0,0-2.61,5h0C887.1,546,888.27,546.9,889.71,546.06Z" transform="translate(-40.18 -198.56)"/><path class="bm" d="M888.67,545.7a1.41,1.41,0,0,0,.7-.23l11.56-6.67a5.61,5.61,0,0,0,2.27-4.4c0-.75-.23-1.61-.89-1.61a1.56,1.56,0,0,0-.7.22l-11.56,6.68a5.59,5.59,0,0,0-2.27,4.4C887.78,544.83,888,545.7,888.67,545.7Z" transform="translate(-40.18 -198.56)"/><path class="bp" d="M558.05,691.57h0c-9,0-17.55-2-24-5.76L376.82,595c-6.62-3.83-10.27-9-10.27-14.49s3.6-10.56,10.13-14.33L768.32,340.09c6.34-3.66,14.76-5.67,23.71-5.67s17.54,2,24,5.76L973.25,431c6.63,3.83,10.28,9,10.28,14.49s-3.6,10.56-10.13,14.33L581.76,685.9C575.42,689.56,567,691.57,558.05,691.57ZM792,336.65c-8.56,0-16.59,1.91-22.59,5.38L377.8,568.14c-5.81,3.36-9,7.76-9,12.4s3.26,9.14,9.16,12.55l157.25,90.79c6.1,3.52,14.21,5.46,22.86,5.46h0c8.56,0,16.58-1.91,22.59-5.38L972.28,457.85c5.81-3.36,9-7.76,9-12.4s-3.25-9.14-9.16-12.55L814.89,342.11C808.79,338.59,800.67,336.65,792,336.65Z" transform="translate(-40.18 -198.56)"/><path class="bq" d="M902.15,405.79l-39-22.52c-1.53-.88-1.34-2.43.43-3.45h0a6.63,6.63,0,0,1,6-.25l39,22.52c1.53.88,1.34,2.43-.43,3.45h0A6.63,6.63,0,0,1,902.15,405.79Z" transform="translate(-40.18 -198.56)"/><path class="br" d="M688.7,511.93l-25.33-14.62-5.91,3.42,25.33,14.62ZM677.19,521,647,503.6,641.07,507l30.21,17.44Zm37.14,5.69-20.75-12-5.91,3.42,20.75,12Zm13,7.49-8.09-4.67L713.3,533l8.08,4.67ZM608.45,465.6,590,454.92,584,458.34,602.54,469Zm-3.88,13.52L576.31,462.8l-5.91,3.42,28.26,16.31Zm77.5,44.74-5.91,3.42,7.93,4.58,5.92-3.42Zm-35.78-36.41-32.95-19-5.92,3.42,33,19Zm12.2,7-7.32-4.22-5.91,3.41,7.32,4.23Zm-16.39,6.3-15.86-9.16L620.32,495l15.87,9.16Zm-32.64-18.85-5.92,3.41,11.9,6.87,5.91-3.41ZM689,534.67l21.67,12.51,5.91-3.41-21.66-12.51Zm69.91,17.78L732.18,537l-5.91,3.41L753,555.86Zm17.24,9.95-12.36-7.13-5.91,3.41,12.35,7.14Zm-149.4-22.27-15.44-8.91-4.39,2.54,15.43,8.91Zm4.84-3.84,22.9,13.25,4.4-2.54L636,533.75Zm41.94,12.6,19.36,11.3,4.4-2.54-19.36-11.3Zm-19.17,12.38,27.76,16.15,4.4-2.54-27.76-16.15Zm3.76-9.63,30.15,17.61,4.4-2.54L662.49,549.1Zm-96.67-55.85,8.85,5.11,4.4-2.54-8.85-5.11Zm23.76,20.36L579.73,513l-4.4,2.54,5.45,3.15Zm4.93-8.88-11.8-6.81-4.4,2.54,11.8,6.81Zm26.1,15.08-22.47-13-4.4,2.54,22.48,13Zm22.15,36.34-33.82-19.64-4.4,2.54L634,561.23ZM577,493.08l24.52,14.15,4.4-2.54-24.52-14.15Zm59.7,34.46,33.15,19.26,4.4-2.54L641.12,525Zm2,48.14,4.4-2.54-23.72-13.82-4.4,2.54Zm44,8.73L642,560.79l-4.4,2.54L678.29,587Zm-45.2-61.5L618.65,512l-4.4,2.54,18.84,10.88Zm-56.11,2.77-19.06-11-4.4,2.54,19.07,11Zm51,6-12.48-7.21-4.4,2.54,12.48,7.21Zm-73.65-19.08-11.8-6.81-4.4,2.54,11.81,6.81Zm-11.5-13.28,24.52,14.16,4.4-2.54-24.52-14.16ZM565.1,528l-24.51-14.15-4.4,2.54,24.52,14.15Zm42.55,1.12-18.84-10.87-4.4,2.54,18.84,10.87Zm8.07,28.11-15.43-8.91-4.4,2.54,15.44,8.91Zm-28.39.4,5.9,3.41,4.4-2.54-5.9-3.41Zm9.53,5.51,16.12,9.3,4.4-2.54-16.12-9.3Zm-23.44-25.26,18.84,10.88,4.4-2.54-18.84-10.88Zm-27.63-4.23,11.8,6.82,4.4-2.54-11.8-6.82Zm55.12,3.3L585,527.78l-4.4,2.54,15.89,9.17Zm-36.57-4.31,5.45,3.14,4.39-2.54-5.44-3.14Zm159,40.08-4.4,2.54,18.65,10.59,4.4-2.54Zm-20.27,16.82,14.22,8,4.4-2.54-14.23-8Zm-20.82-.3,24.89,14.2,4.4-2.54-24.89-14.2Zm-4.14,9.33,18.65,10.59,4.4-2.53L682.53,596Zm-35.82-20.8,32.19,18.71,4.4-2.54-32.19-18.71Zm-81.09-35.21,22.48,13,4.39-2.54-22.47-13Zm16.57-54.12-24.26-14-4.4,2.54,24.26,14Zm118.7,73.85,18.84,10.88,4.4-2.54-18.84-10.88Zm-91.32-53,5.45,3.14,4.4-2.54-5.45-3.14ZM731.52,589l-35.9-20.55-4.4,2.54,35.9,20.55Zm-26.9-3.63L690.12,577l-4.4,2.54,14.5,8.37ZM655.1,556.63l-24.75-14.4-4.4,2.54,24.75,14.4Zm-92.91-65.48-18.81-10.88L539,482.8l18.81,10.89Zm-63.81,15.1,31.29,18.1,4.4-2.54-31.29-18.1Zm38.58,5.5-24-13.9-4.4,2.54,24,13.9Zm6.29-8.09L523.08,492l-4.4,2.54,20.17,11.67Zm4.7-9-14.72-8.53-4.4,2.54,14.72,8.53ZM533.3,526.44l8.86,5.11,4.39-2.54-8.85-5.11Z" transform="translate(-40.18 -198.56)"/><polygon class="bs" points="719.15 269.17 752.45 356.58 870.55 288.39 719.15 269.17"/><polygon class="bt" points="748.86 356.12 715.56 268.71 564.16 249.49 748.86 356.12"/><polygon class="bu" points="718.36 267.1 869.76 286.32 685.06 179.69 718.36 267.1"/><polygon class="bv" points="563.37 247.41 714.77 266.64 681.47 179.23 563.37 247.41"/><polygon class="bw" points="752.82 179.75 741.15 186.49 729.41 179.71 720.61 184.79 741.21 196.69 761.68 184.87 752.82 179.75"/><polygon class="bw" points="741.14 183.89 750.57 178.45 741.08 172.97 731.65 178.42 741.14 183.89"/><polygon class="bw" points="741.07 170.41 763.9 183.59 773.81 177.86 741 158.92 708.4 177.74 718.38 183.5 741.07 170.41"/><g class="bx"><polygon class="by" points="442.36 368.49 354.49 368.33 442.64 419.22 442.36 368.49"/><polygon class="by" points="445.36 315.86 445.63 366.6 533.51 366.76 445.36 315.86"/><polygon class="by" points="442.35 366.6 442.08 315.86 354.48 366.44 442.35 366.6"/><polygon class="by" points="533.52 368.65 445.64 368.49 445.92 419.23 533.52 368.65"/><polygon class="by" points="535.15 367.71 535.15 367.71 535.15 367.71 535.15 367.71"/><polygon class="by" points="444.28 420.17 444.28 420.17 444.28 420.17 444.28 420.17"/></g><polygon class="bz" points="540.5 425.46 452.62 425.3 540.77 476.19 540.5 425.46"/><polygon class="ca" points="543.49 372.83 543.76 423.57 631.64 423.73 543.49 372.83"/><polygon class="cb" points="540.48 423.56 540.21 372.83 452.61 423.41 540.48 423.56"/><polygon class="cc" points="631.65 425.62 543.77 425.46 544.05 476.2 631.65 425.62"/><polygon class="by" points="633.28 424.68 633.28 424.68 633.28 424.68 633.28 424.68"/><polygon class="by" points="542.41 477.14 542.41 477.14 542.41 477.14 542.41 477.14"/><g class="cd"><path d="M806,457.14l5.91-3.42L786.62,439.1l-5.92,3.41Zm-35.81-11.75-5.91,3.42,30.21,17.44,5.91-3.42Zm61.44,26.54,5.91-3.41-20.75-12L810.91,460Zm10.79-.59-5.91,3.41L861.43,489l5.91-3.41Zm-37.14-5.69-5.91,3.42,7.93,4.58,5.92-3.42Zm-37.56-37.49-43.6-25-5.91,3.41,43.59,25Zm8.07,11.54,5.91-3.42-9.1-5.3-5.91,3.41Zm-26.34-6.29-5.92,3.42L759.43,446l5.91-3.42Zm-22.1-12.63-5.92,3.42L738.68,434l5.92-3.41Zm84.84,55.68L833.88,489l5.91-3.41-21.66-12.51Z" transform="translate(-40.18 -198.56)"/></g><path class="bm" d="M806,454.81l5.91-3.41-25.32-14.62-5.92,3.41Zm-35.81-11.74-5.91,3.42,30.21,17.44,5.91-3.42Zm61.44,26.54,5.91-3.41-20.75-12-5.91,3.41Zm10.79-.59-5.91,3.41,24.89,14.27,5.91-3.41Zm-37.14-5.69-5.91,3.41,7.93,4.58,5.92-3.41Zm-37.56-37.49-43.6-25-5.91,3.41,43.59,25Zm8.07,11.54,5.91-3.42-9.1-5.3-5.91,3.41Zm-26.34-6.29-5.92,3.42,15.87,9.16,5.91-3.42Zm-22.1-12.63-5.92,3.42,17.22,9.81,5.92-3.42Zm84.84,55.68,21.66,12.51,5.91-3.41-21.66-12.51Z" transform="translate(-40.18 -198.56)"/><path class="bm" d="M749.39,503l-74.82-43.2c-7.55-4.36-6.6-12,2.12-17h0c8.71-5,21.9-5.58,29.45-1.22L781,484.72c7.55,4.36,6.61,12-2.11,17h0C770.12,506.76,756.94,507.31,749.39,503Z" transform="translate(-40.18 -198.56)"/><polygon class="bm" points="708.01 283.27 706.04 276.69 702.9 278.51 682.67 266.83 679.54 268.64 699.77 280.31 696.62 282.13 708.01 283.27"/><path class="ce" d="M769.83,492.9l-.12-.07,2.94-1.69c1.88-1.09,1.87-2.86,0-3.95l-2.37-1.36a7.54,7.54,0,0,0-6.83,0l-2.94,1.7-.12-.07a3.53,3.53,0,0,0-3.18,0l-7.28,4.21c-.88.51-.87,1.33,0,1.84l9.46,5.46a3.5,3.5,0,0,0,3.18,0l7.28-4.2C770.72,494.23,770.71,493.41,769.83,492.9ZM759.6,494l-1.72,1-1.18-.68,1.72-1c-.25-.4-.1-.86.45-1.18a3.07,3.07,0,0,1,2.77,0,.85.85,0,0,1,0,1.6A3.1,3.1,0,0,1,759.6,494Zm8.13-2.35-5.25-3,2.35-1.36a4.3,4.3,0,0,1,3.89,0l1.34.77a1.19,1.19,0,0,1,0,2.25Z" transform="translate(-40.18 -198.56)"/><path class="bm" d="M658.15,620.24a12.74,12.74,0,0,0-8.22-1.18c.86-1.62.19-3.46-2-4.74a12.77,12.77,0,0,0-11.55,0c-5.81,3.36-2.07,13.82-2.07,13.82s18.11,2.16,23.93-1.2C661.37,625.08,661.35,622.09,658.15,620.24Z" transform="translate(-40.18 -198.56)"/><polygon class="cf" points="419.09 490.59 232.36 382.07 448.67 257.46 635.4 365.98 419.09 490.59"/><polygon class="cg" points="419.09 488.33 235.62 380.19 232.36 382.07 419.09 490.59 635.27 366.02 632.01 365.64 419.09 488.33"/><path class="bm" d="M428.73,614.47l-15.37-8.88L409,608.12,424.35,617Zm4.83-3.83,16,9.26,4.38-2.53-16-9.26Zm24.12,2.25,7,4.05,4.38-2.53-7-4Zm-19.09,12.33L454,634.09l4.38-2.53L443,622.69ZM453.22,622l6.87,4,4.38-2.52-6.87-4Zm-89.51-51.68,8.82,5.09,4.38-2.53-8.82-5.09Zm23.66,20.28-5.43-3.14L377.56,590l5.43,3.13Zm4.91-8.84L380.52,575l-4.38,2.53,11.76,6.79Zm26,15-22.38-12.92-4.38,2.52,22.38,12.92Zm4.42,25.89-16-9.26-4.38,2.52,16,9.27Zm-43.44-55,24.41,14.09,4.38-2.53-24.41-14.09Zm59.44,34.32,15.37,8.87,4.38-2.52-15.37-8.88ZM423,639.56l4.38-2.53-6-3.45L417,636.11Zm31.55,1.49-28.25-16.31-4.38,2.53,28.25,16.31Zm-15.1-43.74-18.77-10.83L416.31,589l18.77,10.83Zm-55.87,2.76-19-11-4.38,2.53,19,11ZM434.32,606l-12.43-7.18-4.38,2.53,12.43,7.18ZM361,587l-11.76-6.79-4.38,2.53,11.76,6.78ZM349.54,573.8,374,587.89l4.38-2.52-24.41-14.1Zm17.84,28.59L343,588.29l-4.38,2.53L363,604.92Zm42.37,1.11L391,592.67l-4.38,2.53L405.37,606Zm8,28-15.37-8.88L398,625.14,413.4,634Zm-42.12-19.27,18.76,10.84,4.38-2.53L380,609.7ZM403,611.3l-15.82-9.14-4.38,2.53,15.82,9.14ZM366.62,607l5.42,3.14,4.38-2.53L371,604.48Zm128.44,22.42L490.68,632l19.57,11.23,4.38-2.53Zm-20.19,16.74L490,654.85l4.38-2.52-15.16-8.7Zm-20.73-.3,25.78,14.83,4.38-2.53-25.78-14.82ZM380,563l-22.72-13-4.38,2.53,22.72,13Zm88.29,56,18.76,10.83,4.38-2.53L472.68,616.5Zm-61-35.24,5.43,3.13,4.38-2.53-5.43-3.13Zm96.91,62.5-36.75-21.15-4.38,2.53,36.75,21.15ZM476.4,642,462,633.65l-4.38,2.53L472,644.51Zm-37-21.39-7-4.05L428,619.08l7,4Zm-74.88-54.9-17.3-9.85-4.38,2.53,17.3,9.85Zm-25.13,20.51-22.49-12.85-4.38,2.53L335,588.73Zm6.27-8.06L327,567.52l-4.38,2.53,18.65,10.63Zm4.68-9-13.23-7.49-4.38,2.53,13.23,7.49Z" transform="translate(-40.18 -198.56)"/><polygon class="bm" points="602.04 368.71 583.28 357.88 578.9 360.41 597.66 371.24 602.04 368.71"/><polygon class="bm" points="551.55 339.42 537.85 331.51 533.47 334.04 547.17 341.95 551.55 339.42"/><polygon class="bm" points="548.67 349.44 527.74 337.35 523.36 339.88 544.29 351.96 548.67 349.44"/><polygon class="bm" points="579.58 355.61 555.16 341.51 550.78 344.04 575.2 358.13 579.58 355.61"/><polygon class="bm" points="576.48 365.49 564.72 358.7 560.34 361.23 572.1 368.01 576.48 365.49"/><polygon class="bm" points="552.29 351.52 547.91 354.05 556.73 359.14 561.11 356.61 552.29 351.52"/><polygon class="bm" points="508.3 362.57 517.11 367.66 521.49 365.13 512.68 360.04 508.3 362.57"/><polygon class="bm" points="531.96 382.84 526.53 379.71 522.15 382.24 527.58 385.37 531.96 382.84"/><polygon class="bm" points="536.86 374 525.11 367.21 520.73 369.74 532.48 376.53 536.86 374"/><polygon class="bm" points="523.83 359.86 548.24 373.96 552.62 371.43 528.21 357.33 523.83 359.86"/><polygon class="bm" points="494.12 366.05 518.53 380.15 522.91 377.62 498.5 363.52 494.12 366.05"/><polygon class="bm" points="524.6 355.25 510.67 347.2 506.29 349.73 520.22 357.77 524.6 355.25"/><polygon class="bm" points="551.86 376.05 557.28 379.18 561.66 376.65 556.24 373.52 551.86 376.05"/><polygon class="bm" points="509.06 357.95 500.56 353.04 496.18 355.57 504.68 360.48 509.06 357.95"/><polygon class="bm" points="494.89 361.44 490.45 358.88 486.07 361.4 490.51 363.97 494.89 361.44"/><polygon class="bw" points="444.65 327.24 362.1 327.09 444.9 374.89 444.65 327.24"/><polygon class="bw" points="447.46 277.8 447.71 325.46 530.26 325.61 447.46 277.8"/><polygon class="bw" points="444.64 325.46 444.38 277.8 362.09 325.31 444.64 325.46"/><polygon class="bw" points="530.27 327.39 447.73 327.24 447.98 374.9 530.27 327.39"/><polygon class="bw" points="531.81 326.5 531.81 326.5 531.81 326.5 531.81 326.5"/><polygon class="bw" points="446.45 375.79 446.45 375.79 446.45 375.79 446.45 375.79"/><path class="bm" d="M535.1,575.31a12.76,12.76,0,0,0-8.23-1.18c.87-1.62.19-3.46-2-4.75a12.74,12.74,0,0,0-11.55,0c-5.82,3.36-2.08,13.82-2.08,13.82s18.12,2.16,23.93-1.2C538.31,580.14,538.3,577.16,535.1,575.31Z" transform="translate(-40.18 -198.56)"/><polygon class="ch" points="463.76 328.07 446.21 338.21 428.54 328.01 415.29 335.66 446.29 353.56 477.1 335.77 463.76 328.07"/><polygon class="ch" points="446.19 334.31 460.38 326.11 446.1 317.87 431.91 326.06 446.19 334.31"/><polygon class="ch" points="446.08 314.01 480.43 333.84 495.36 325.23 445.98 296.72 396.92 325.05 411.93 333.72 446.08 314.01"/><path class="ci" d="M569.31,558.74,429.64,478.1a21.76,21.76,0,0,1-.05-37.66L602.68,340.22a21.74,21.74,0,0,1,21.81,0l139.66,80.64a21.75,21.75,0,0,1,.05,37.65L591.11,558.71A21.77,21.77,0,0,1,569.31,558.74Z" transform="translate(-40.18 -198.56)"/><path class="cj" d="M570.28,556.63l-138.21-79.8a21.2,21.2,0,0,1-.05-36.7l169.89-98.38a21.21,21.21,0,0,1,21.25,0l138.22,79.79a21.2,21.2,0,0,1,0,36.7L591.53,556.6A21.18,21.18,0,0,1,570.28,556.63Z" transform="translate(-40.18 -198.56)"/><path class="ck" d="M571.25,554.53l-136.76-79a20.66,20.66,0,0,1,0-35.75l166.69-96.53a20.64,20.64,0,0,1,20.7,0l136.76,79a20.65,20.65,0,0,1,0,35.74L592,554.5A20.69,20.69,0,0,1,571.25,554.53Z" transform="translate(-40.18 -198.56)"/><path class="cl" d="M572.22,552.42,436.92,474.3a20.1,20.1,0,0,1-.05-34.79l163.5-94.69a20.1,20.1,0,0,1,20.15,0l135.3,78.11a20.1,20.1,0,0,1,0,34.79l-163.5,94.69A20.1,20.1,0,0,1,572.22,552.42Z" transform="translate(-40.18 -198.56)"/><path class="cm" d="M573.19,550.31,439.35,473a19.54,19.54,0,0,1-.05-33.83l160.3-92.85a19.56,19.56,0,0,1,19.6,0L753,423.61a19.54,19.54,0,0,1,.05,33.83l-160.3,92.85A19.53,19.53,0,0,1,573.19,550.31Z" transform="translate(-40.18 -198.56)"/><path class="cn" d="M574.16,548.21,441.77,471.78a19,19,0,0,1,0-32.88l157.1-91a19,19,0,0,1,19,0L750.27,424.3a19,19,0,0,1,0,32.88l-157.11,91A19,19,0,0,1,574.16,548.21Z" transform="translate(-40.18 -198.56)"/><path class="co" d="M575.13,546.1,444.2,470.51a18.44,18.44,0,0,1,0-31.92l153.91-89.16a18.46,18.46,0,0,1,18.49,0L747.49,425a18.45,18.45,0,0,1,0,31.93L593.62,546.08A18.43,18.43,0,0,1,575.13,546.1Z" transform="translate(-40.18 -198.56)"/><path class="cp" d="M576.1,544,446.63,469.25a17.9,17.9,0,0,1-.05-31L597.3,351a17.87,17.87,0,0,1,17.93,0l129.48,74.75a17.9,17.9,0,0,1,0,31L594,544A17.91,17.91,0,0,1,576.1,544Z" transform="translate(-40.18 -198.56)"/><path class="cq" d="M577.07,541.89,449.05,468a17.34,17.34,0,0,1,0-30L596.53,352.5a17.31,17.31,0,0,1,17.38,0l128,73.91a17.35,17.35,0,0,1,.05,30L594.46,541.87A17.35,17.35,0,0,1,577.07,541.89Z" transform="translate(-40.18 -198.56)"/><path class="cr" d="M578.05,539.79,451.48,466.72a16.79,16.79,0,0,1,0-29.06L595.76,354a16.79,16.79,0,0,1,16.83,0l126.57,73.07a16.79,16.79,0,0,1,0,29.05L594.88,539.76A16.76,16.76,0,0,1,578.05,539.79Z" transform="translate(-40.18 -198.56)"/><path class="cs" d="M579,537.68,453.91,465.45a16.24,16.24,0,0,1-.05-28.1L595,355.57a16.22,16.22,0,0,1,16.28,0l125.11,72.23a16.24,16.24,0,0,1,0,28.1L595.3,537.66A16.25,16.25,0,0,1,579,537.68Z" transform="translate(-40.18 -198.56)"/><path class="ct" d="M580,535.58,456.33,464.19a15.69,15.69,0,0,1,0-27.15L594.22,357.1a15.68,15.68,0,0,1,15.73,0L733.6,428.47a15.68,15.68,0,0,1,0,27.14L595.72,535.55A15.68,15.68,0,0,1,580,535.58Z" transform="translate(-40.18 -198.56)"/><polygon class="cu" points="542.36 336.29 365.66 234.28 559.65 122.19 736.34 224.21 542.36 336.29"/><polygon class="bm" points="708.13 240.4 531.44 138.38 567.68 117.55 744.37 219.57 708.13 240.4"/><polygon class="bm" points="636.82 253.55 506.61 178.37 533.8 163.12 664.01 238.29 636.82 253.55"/><polygon class="bm" points="598.37 276.12 468.17 200.94 495.36 185.69 625.56 260.86 598.37 276.12"/><path class="cv" d="M573.73,507.62l-67.47-38.95c-6.55-3.78-5.72-10.38,1.84-14.75h0c7.56-4.36,19-4.84,25.55-1.06l67.46,38.95c6.55,3.79,5.73,10.39-1.83,14.76h0C591.72,510.93,580.28,511.41,573.73,507.62Z" transform="translate(-40.18 -198.56)"/><polygon class="cw" points="594.36 298.97 428.98 203.49 430.49 202.84 595.87 298.32 594.36 298.97"/><path class="cx" d="M748,417.35H757c.78,0,1.42-.36,1.41-.82s-.64-.82-1.42-.82l-9.06,0,0-5.23c0-.45-.64-.82-1.43-.82s-1.42.36-1.42.82l0,5.23-9.06,0c-.79,0-1.42.37-1.42.82a.71.71,0,0,0,.42.58,2,2,0,0,0,1,.24l9.06,0,0,5.23a.69.69,0,0,0,.42.58,2,2,0,0,0,1,.25c.79,0,1.43-.37,1.42-.82Z" transform="translate(-40.18 -198.56)"/><polygon class="cg" points="542.36 334.41 368.38 232.71 365.66 234.28 542.36 336.29 743.99 219.59 741.27 219.28 542.36 334.41"/><polygon class="bw" points="530.55 290.41 528.59 283.83 525.44 285.65 505.21 273.98 502.09 275.78 522.31 287.46 519.16 289.28 530.55 290.41"/><polygon class="cy" points="548.35 298.85 543.4 301.71 538.41 298.83 534.67 300.99 543.42 306.04 552.11 301.02 548.35 298.85"/><polygon class="cz" points="543.39 300.61 547.39 298.3 543.36 295.97 539.36 298.28 543.39 300.61"/><polygon class="cy" points="543.36 294.88 553.05 300.48 557.26 298.05 543.33 290 529.49 298 533.73 300.44 543.36 294.88"/><path class="da" d="M577.08,382.42a3.35,3.35,0,0,1-1.19-2.28c0-.48.67-.86,1.5-.86a14.59,14.59,0,0,0,3.23-.35,3,3,0,0,0,2.08,0c.54-.31.72-.74.46-1,2.17-1.38,3.19-3,.09-4.82a8.18,8.18,0,0,0-8.34.05,2.53,2.53,0,0,0-1.77.27.72.72,0,0,0-.06,1.2,3.34,3.34,0,0,0-.62,1.87c0,.48-.66.88-1.48.86a12.5,12.5,0,0,1-4-.68,6.63,6.63,0,0,0-5.13.34l-2.4,1.39a.52.52,0,0,0,0,1l12.89,7.44a1.86,1.86,0,0,0,1.69,0l2.4-1.39C577.87,384.58,578.07,383.35,577.08,382.42Z" transform="translate(-40.18 -198.56)"/><path class="db" d="M544,401.92l-.12-.07,2.94-1.7c1.88-1.08,1.87-2.85,0-3.94l-2.36-1.37a7.56,7.56,0,0,0-6.84,0l-2.94,1.69-.11-.07a3.55,3.55,0,0,0-3.19,0l-7.28,4.2c-.88.51-.87,1.33,0,1.84L533.5,408a3.53,3.53,0,0,0,3.18,0l7.28-4.21A1,1,0,0,0,544,401.92ZM533.72,403,532,404l-1.18-.69,1.72-1c-.25-.4-.1-.86.45-1.18a3,3,0,0,1,2.77,0,.84.84,0,0,1,0,1.6A3.1,3.1,0,0,1,533.72,403Zm8.13-2.34-5.25-3,2.35-1.36a4.33,4.33,0,0,1,3.89,0l1.34.78c1.08.62,1.09,1.62,0,2.24Z" transform="translate(-40.18 -198.56)"/><path class="ci" d="M779.16,488.6,605.44,387a12.66,12.66,0,0,1-.38-21.7L653,327.89a12.64,12.64,0,0,1,13-.23L848.1,434.23a12.66,12.66,0,0,1,0,21.91l-56.27,32.44A12.67,12.67,0,0,1,779.16,488.6Z" transform="translate(-40.18 -198.56)"/><path class="cj" d="M780,486.7l-171-100a12.73,12.73,0,0,1-.36-21.83l44.24-34.37a12.74,12.74,0,0,1,13.08-.21L844.52,434.79a12.72,12.72,0,0,1,0,22l-51.82,29.87A12.71,12.71,0,0,1,780,486.7Z" transform="translate(-40.18 -198.56)"/><path class="ck" d="M780.77,484.8,612.59,386.36a12.79,12.79,0,0,1-.33-22l40.55-31.34a12.81,12.81,0,0,1,13.12-.19l175,102.48a12.79,12.79,0,0,1,0,22.13l-47.38,27.3A12.8,12.8,0,0,1,780.77,484.8Z" transform="translate(-40.18 -198.56)"/><path class="cl" d="M781.58,482.9,616.16,386.06a12.85,12.85,0,0,1-.29-22.09l36.85-28.32a12.84,12.84,0,0,1,13.15-.17L837.36,435.91a12.86,12.86,0,0,1,0,22.25l-42.92,24.72A12.88,12.88,0,0,1,781.58,482.9Z" transform="translate(-40.18 -198.56)"/><path class="cm" d="M782.39,481,619.73,385.76a12.92,12.92,0,0,1-.26-22.23l33.16-25.29a12.94,12.94,0,0,1,13.19-.16l168,98.39a12.92,12.92,0,0,1,0,22.36L795.34,481A12.92,12.92,0,0,1,782.39,481Z" transform="translate(-40.18 -198.56)"/><path class="cn" d="M783.19,479.1,623.31,385.46a13,13,0,0,1-.23-22.36l29.47-22.28a13,13,0,0,1,13.21-.13L830.2,437a13,13,0,0,1,0,22.47l-34,19.58A13,13,0,0,1,783.19,479.1Z" transform="translate(-40.18 -198.56)"/><path class="co" d="M784,477.2l-157.12-92a13.06,13.06,0,0,1-.2-22.5l25.78-19.25a13,13,0,0,1,13.25-.12l160.91,94.3a13.05,13.05,0,0,1,0,22.59l-29.56,17A13.06,13.06,0,0,1,784,477.2Z" transform="translate(-40.18 -198.56)"/><path class="cp" d="M784.81,475.3,630.45,384.85a13.11,13.11,0,0,1-.16-22.62L652.37,346a13.1,13.1,0,0,1,13.28-.1L823,438.15a13.12,13.12,0,0,1,0,22.7L798,475.28A13.1,13.1,0,0,1,784.81,475.3Z" transform="translate(-40.18 -198.56)"/><path class="cq" d="M785.61,473.4,634,384.55a13.18,13.18,0,0,1-.13-22.75l18.39-13.22a13.17,13.17,0,0,1,13.32-.07l153.86,90.2a13.18,13.18,0,0,1,0,22.81l-20.67,11.86A13.16,13.16,0,0,1,785.61,473.4Z" transform="translate(-40.18 -198.56)"/><path class="cr" d="M786.42,471.5,637.6,384.25a13.25,13.25,0,0,1-.1-22.89l14.69-10.19a13.25,13.25,0,0,1,13.35-.06l150.34,88.16a13.24,13.24,0,0,1,0,22.92l-16.22,9.29A13.22,13.22,0,0,1,786.42,471.5Z" transform="translate(-40.18 -198.56)"/><path class="cs" d="M787.23,469.61,641.17,384a13.31,13.31,0,0,1-.07-23l11-7.17a13.3,13.3,0,0,1,13.39,0L812.3,439.83a13.32,13.32,0,0,1,0,23l-11.76,6.72A13.35,13.35,0,0,1,787.23,469.61Z" transform="translate(-40.18 -198.56)"/><path class="ct" d="M788,467.71,644.74,383.65a13.39,13.39,0,0,1,0-23.16l7.32-4.15a13.39,13.39,0,0,1,13.41,0l143.3,84.07a13.38,13.38,0,0,1,0,23.15l-7.31,4.15A13.41,13.41,0,0,1,788,467.71Z" transform="translate(-40.18 -198.56)"/><polygon class="dc" points="752.46 273.56 565.72 165.05 629.99 128.06 816.72 236.58 752.46 273.56"/><polygon class="cg" points="752.46 271.3 568.98 163.17 565.72 165.05 752.46 273.56 816.59 236.63 813.33 236.25 752.46 271.3"/><polygon class="bm" points="755.84 251.51 604.65 164.02 631.84 148.77 783.03 236.25 755.84 251.51"/><path class="dd" d="M798.91,444.1l0-5.07c0-.54-.64-1-1.49-1.11v-1.49c4.47-.35,7.92-2.56,7.9-5.24,0-2.94-4.15-5.32-9.23-5.33s-9.19,2.36-9.17,5.29c0,2.69,3.48,4.91,8,5.27v1.49c-.85.13-1.48.57-1.48,1.11l0,5.07c0,.64.9,1.16,2,1.16h1.51C798,445.25,798.91,444.74,798.91,444.1Zm-2.8-9.43c-3.35,0-6.07-1.58-6.08-3.51s2.69-3.5,6-3.49,6.07,1.58,6.08,3.51S799.46,434.68,796.11,434.67Z" transform="translate(-40.18 -198.56)"/><polygon class="de" points="687.83 140.5 659.33 124.05 637.95 136.39 687.97 165.27 737.67 136.57 716.16 124.15 687.83 140.5"/><polygon class="df" points="687.65 107.69 664.76 120.91 687.8 134.21 710.69 120.99 687.65 107.69"/><polygon class="dg" points="687.47 73.58 608.31 119.28 632.54 133.27 687.62 101.47 743.04 133.47 767.12 119.56 687.47 73.58"/><polygon class="cg" points="687.97 163.03 639.89 135.27 637.95 136.39 687.97 165.27 737.67 136.57 735.73 135.45 687.97 163.03"/><polygon class="cg" points="743.04 131.23 687.62 99.23 632.54 131.03 610.25 118.16 608.31 119.28 632.54 133.27 687.62 101.47 743.04 133.47 767.12 119.56 765.18 118.45 743.04 131.23"/><polygon class="cg" points="687.8 134.21 710.69 120.99 708.75 119.87 687.8 131.97 666.7 119.79 664.76 120.91 687.8 134.21"/><path class="dh" d="M456.18,346.37l-7.6.59-.07,0,5.93,2.62L452.09,351l-4.61-3.38-.07,0-.81,4.31-3.42-.54,2.74-4-.07,0-7.11,1.5L438,347l7.5-.53.07,0-5.79-2.58,2.35-1.36,4.44,3.32.07,0,.94-4.31,3.32.52-2.64,4,.07,0,6.94-1.57Z" transform="translate(-40.18 -198.56)"/><path class="di" d="M470.57,354.68l-7.6.58-.07,0,5.92,2.63-2.34,1.35-4.62-3.38-.07,0-.8,4.31-3.43-.55,2.75-4-.07,0-7.11,1.5-.74-1.86,7.5-.52.07,0-5.79-2.59,2.34-1.35,4.44,3.32.07,0,1-4.31,3.32.53-2.64,4,.07,0,6.94-1.56Z" transform="translate(-40.18 -198.56)"/><path class="dj" d="M485,363l-7.6.59-.07,0,5.93,2.62-2.35,1.35-4.61-3.38-.07,0-.81,4.31L472,368l2.74-4-.07,0-7.11,1.51-.73-1.86,7.49-.53.07,0-5.78-2.58,2.34-1.35,4.44,3.32.07,0,.94-4.31,3.33.52-2.64,4,.07,0,6.93-1.56Z" transform="translate(-40.18 -198.56)"/><path class="dk" d="M499.34,371.29l-7.6.58-.07,0,5.92,2.63-2.34,1.35-4.61-3.38-.07,0-.81,4.31-3.42-.55,2.74-4-.07,0-7.11,1.5-.74-1.86,7.5-.52.07,0-5.79-2.59,2.34-1.35,4.45,3.32.07,0,.94-4.31,3.32.53-2.64,4,.07,0,6.94-1.57Z" transform="translate(-40.18 -198.56)"/><path class="b" d="M513.72,379.59l-7.6.59-.07,0,5.93,2.62-2.34,1.36L505,380.82l-.07,0-.8,4.3-3.43-.54,2.75-4-.07,0-7.12,1.51-.73-1.86,7.49-.53.07,0-5.78-2.58,2.34-1.35,4.44,3.32.07,0,.95-4.31,3.32.52-2.64,4,.07,0,6.94-1.56Z" transform="translate(-40.18 -198.56)"/><g class="bx"><polygon class="bw" points="405.21 367.92 382.84 355 378.46 357.53 400.83 370.44 405.21 367.92"/><polygon class="bw" points="351.42 336.86 321.69 319.84 317.31 322.37 347.04 339.39 351.42 336.86"/><polygon class="bw" points="408.83 370 404.45 372.53 410.33 375.93 414.71 373.4 408.83 370"/><polygon class="bw" points="379.22 352.91 367.47 346.12 363.09 348.65 374.84 355.44 379.22 352.91"/><polygon class="bw" points="355.04 338.95 350.66 341.47 359.47 346.56 363.85 344.04 355.04 338.95"/><polygon class="bw" points="413.94 378.01 429.99 387.28 434.37 384.75 418.32 375.49 413.94 378.01"/></g><polygon class="bm" points="419.2 389.36 396.82 376.44 392.44 378.97 414.82 391.89 419.2 389.36"/><polygon class="bm" points="365.4 358.3 335.68 341.28 331.3 343.81 361.02 360.83 365.4 358.3"/><polygon class="bm" points="422.81 391.45 418.43 393.97 424.31 397.37 428.69 394.84 422.81 391.45"/><polygon class="bm" points="393.2 374.35 381.45 367.56 377.07 370.09 388.82 376.88 393.2 374.35"/><polygon class="bm" points="369.02 360.39 364.64 362.92 373.45 368 377.83 365.48 369.02 360.39"/><polygon class="bm" points="427.93 399.45 443.98 408.72 448.36 406.19 432.31 396.93 427.93 399.45"/><path class="bw" d="M910.83,449l22.56,13a3.72,3.72,0,0,0,3.36,0,1,1,0,0,0,0-1.94l-22.56-13a3.74,3.74,0,0,0-3.37,0A1,1,0,0,0,910.83,449Zm20.25,14.35-22.56-13a3.72,3.72,0,0,0-3.36,0c-.93.53-.92,1.4,0,1.94l22.56,13a3.72,3.72,0,0,0,3.36,0C932,464.76,932,463.89,931.08,463.35Zm-5.66,3.27-22.56-13a3.69,3.69,0,0,0-3.36,0c-.93.53-.92,1.4,0,1.94l22.56,13a3.72,3.72,0,0,0,3.36,0C926.36,468,926.36,467.16,925.42,466.62Z" transform="translate(-40.18 -198.56)"/></g></svg>